<svg xmlns="http://www.w3.org/2000/svg"
  xml:space="preserve"
  width="137.483mm"
  height="129.199mm"
  version="1.1"
  style="shape-rendering:geometricPrecision; text-rendering:geometricPrecision; image-rendering:optimizeQuality; fill-rule:evenodd; clip-rule:evenodd"
  viewBox="0 0 1054.94 991.38"
  xmlns:xlink="http://www.w3.org/1999/xlink"
  xmlns:xodm="http://www.corel.com/coreldraw/odm/2003">
  <defs>
    <style type="text/css">
      <![CDATA[
    .fil5 {fill:#263238;fill-rule:nonzero}
    .fil7 {fill:#27835D;fill-rule:nonzero}
    .fil6 {fill:#455A64;fill-rule:nonzero}
    .fil9 {fill:#6F4439;fill-rule:nonzero}
    .fil0 {fill:#E0E0E0;fill-rule:nonzero}
    .fil8 {fill:#EB996E;fill-rule:nonzero}
    .fil3 {fill:#EBEBEB;fill-rule:nonzero}
    .fil4 {fill:whitesmoke;fill-rule:nonzero}
    .fil1 {fill:#FAFAFA;fill-rule:nonzero}
    .fil11 {fill:#FFBE9D;fill-rule:nonzero}
    .fil2 {fill:white;fill-rule:nonzero}
    .fil10 {fill:white;fill-rule:nonzero;fill-opacity:0.600000}
   ]]>
    </style>
  </defs>
  <g id="Layer_x0020_1">
    <g id="_2761723580640">
      <g>
        <g>
          <path class="fil0"
            d="M242.03 771.22c-8.9,-5.58 -19,-9.07 -29.46,-10.16 -4.81,-0.49 -10.15,-0.35 -13.93,2.56 -0.88,0.53 -1.42,1.48 -1.42,2.5 0,0.02 0,0.04 0,0.06 0.22,0.73 0.7,1.34 1.36,1.72 11.98,9.16 30.11,10.29 43.45,3.29l-0 0.02zm0 0l812.91 -771.22 -812.91 771.22z"/>
        </g>
        <g>
          <path class="fil0"
            d="M241.26 770.39c-6.8,-4.99 -13.19,-10.62 -19,-16.73 -5.85,-6.16 -9.97,-13.78 -11.92,-22.05 -0.28,-0.87 -0.42,-1.77 -0.42,-2.68 0,-1.66 0.47,-3.29 1.35,-4.69 15.17,11.84 27.06,27.14 29.99,46.15l-0 0zm0 0l813.68 -770.39 -813.68 770.39z"/>
        </g>
        <g>
          <path class="fil0"
            d="M241.87 771.12c-0.65,-3.81 -0.98,-7.69 -0.98,-11.55 0,-4.5 0.45,-9.01 1.32,-13.42 1.69,-8.28 6.43,-15.64 13.26,-20.6 2.62,6.09 1.5,13.18 -0.35,19.57 -2.85,9.91 -7.32,19.3 -13.2,27.77l-0.06 -1.76zm0 0l813.07 -771.12 -813.07 771.12z"/>
        </g>
        <g>
          <path class="fil0"
            d="M256.73 797.74c-9.01,1.1 -16.87,5.87 -23.61,11.96 -6.79,6.17 -11.51,14.31 -13.5,23.27 8.83,-0.55 16.24,-6.78 21.78,-13.78 5.54,-7 9.22,-14.68 15.21,-21.22l0.12 -0.22zm0 0l798.21 -797.74 -798.21 797.74z"/>
        </g>
        <g>
          <path class="fil0"
            d="M259.96 802c-2.68,-6.79 -4.05,-14.04 -4.05,-21.34 0,-12.09 3.77,-23.89 10.77,-33.74 5.14,18.27 3.25,38.92 -6.72,55.08l0 0zm0 0l794.98 -802 -794.98 802z"/>
        </g>
        <g>
          <path class="fil0"
            d="M279.59 825.39c-0.87,-0.05 -1.75,-0.08 -2.62,-0.08 -15.93,0 -30.5,9 -37.63,23.24 -0.51,0.99 -0.95,2.27 -0.28,3.17 0.55,0.54 1.29,0.84 2.06,0.84 0.21,0 0.41,-0.02 0.62,-0.06 7.94,-0.51 14.96,-5.28 20.77,-10.72 5.81,-5.44 10.86,-11.71 17.28,-16.42l-0.18 0.04zm0 0l775.35 -825.39 -775.35 825.39z"/>
        </g>
        <g>
          <path class="fil0"
            d="M278.96 824.11c-2.23,-7.19 -3.37,-14.71 -3.37,-22.24 0,-6.64 0.89,-13.26 2.63,-19.66 1.48,-5.4 4.06,-11.08 8.93,-13.6 0.29,-0.19 0.63,-0.29 0.97,-0.29 0.14,0 0.27,0.02 0.4,0.05 0.4,0.21 0.71,0.56 0.85,0.99 1.39,3.17 2.11,6.6 2.11,10.07 0,0.65 -0.03,1.31 -0.08,1.95 -0.29,4.09 -0.93,8.19 -1.89,12.18 -1.56,7.43 -2.4,15.41 -6.48,21.83 -0.97,1.54 -1.84,3.16 -2.6,4.81 -0.77,1.62 -0.77,2.19 -1.48,3.49l-0 0.43zm0 0l775.98 -824.11 -775.98 824.11z"/>
        </g>
        <g>
          <path class="fil0"
            d="M330.93 831.84c-3.86,-14.64 0.24,-32.48 9.46,-44.4 0.69,-0.89 1.58,-1.83 2.7,-1.73 1.69,0.14 2.13,2.42 2.03,4.06 -0.68,15.05 -5.62,29.63 -14.21,42l0.02 0.06zm0 0l724.01 -831.84 -724.01 831.84z"/>
        </g>
        <g>
          <path class="fil0"
            d="M335.62 834.99c17.79,4.63 38.21,0.12 53.01,-10.78 -5.94,-2.96 -12.51,-4.51 -19.15,-4.51 -3.21,0 -6.43,0.36 -9.56,1.08 -9.58,2.19 -18.27,6.48 -24.36,14.21l0.06 0zm0 0l719.32 -834.99 -719.32 834.99z"/>
        </g>
        <path class="fil0"
          d="M339.56 825.31c9.97,-16.24 29.07,-26.86 48.12,-27.81 -2.19,7.74 -8.55,13.74 -15.73,17.38 -7.19,3.63 -15.19,5.24 -23.1,6.76 -3.07,0.59 -7.29,1.26 -9.28,3.67z"/>
        <g>
          <path class="fil0"
            d="M331.93 777.98c2.98,-9.15 5.04,-18.63 6.09,-28.19 0.73,-9.6 -0.63,-19.63 -5.62,-27.87 -9.3,18.03 -10.15,39.06 -0.81,57.01l0.35 -0.95zm0 0l723.01 -777.98 -723.01 777.98z"/>
        </g>
        <path class="fil0"
          d="M363.26 762.15c10.9,-19.79 33.11,-35.59 55.59,-37.8 -8.67,21.58 -32.32,38.25 -55.59,37.8z"/>
        <g>
          <path class="fil0"
            d="M356.41 765.96c16.24,2.46 30.07,12.83 45.23,19.12 2.78,1.36 5.83,2.07 8.93,2.07 0.41,0 0.82,-0.01 1.22,-0.04 4.41,-0.01 7.98,-3.59 7.98,-8 0,-2.41 -1.09,-4.69 -2.96,-6.21 -2.14,-1.99 -4.67,-3.52 -7.43,-4.5 -16.53,-6.88 -34.25,-7.07 -51.65,-2.88l-1.32 0.45zm0 0l698.53 -765.96 -698.53 765.96z"/>
        </g>
        <g>
          <path class="fil0"
            d="M347.01 777.41c3.67,1.04 4.93,2.94 7.86,5.42 9.91,8.44 21.66,14.48 34.3,17.64 1.32,0.32 3.05,0.47 3.69,-0.73 0.65,-1.2 -0.16,-2.27 -0.89,-3.21 -5.52,-6.46 -12.67,-11.32 -20.71,-14.04 -7.92,-2.96 -14.78,-6.52 -24.24,-5.75l-0 0.67zm0 0l707.93 -777.41 -707.93 777.41z"/>
        </g>
        <g>
          <path class="fil0"
            d="M336.42 708.63c11.99,11.05 27.72,17.19 44.02,17.19 1.92,0 3.85,-0.09 5.76,-0.25 0.02,-0 0.04,-0 0.06,-0 0.8,0 1.58,-0.29 2.19,-0.81 1.26,-1.36 -0.24,-3.47 -1.71,-4.61 -14.64,-11.41 -32.36,-16.14 -50.33,-11.51l-0 0zm0 0l718.52 -708.63 -718.52 708.63z"/>
        </g>
        <g>
          <path class="fil0"
            d="M348.98 704.02c11.89,-8.73 26.28,-13.44 41.03,-13.44 7.16,0 14.29,1.12 21.1,3.29 -8.13,7.52 -18.57,12.1 -29.61,12.99 -2.8,0.26 -5.63,0.38 -8.44,0.38 -8.11,0 -16.21,-1.06 -24.04,-3.14l-0.04 -0.08zm0 0l705.96 -704.02 -705.96 704.02z"/>
        </g>
        <g>
          <path class="fil0"
            d="M343.99 672.43c-1.44,-14.62 -0.51,-26.15 -1.52,-40.83 0,-1.16 -0.32,-2.58 -1.42,-3 -1.52,-0.59 -2.8,1.3 -3.31,2.86 -1.41,4.51 -2.13,9.21 -2.13,13.94 0,9.53 2.92,18.84 8.36,26.66l0.02 0.37zm0 0l710.95 -672.43 -710.95 672.43z"/>
        </g>
        <g>
          <path class="fil0"
            d="M342.93 674.04c9.53,-6.13 17.79,-14.15 24.2,-23.51 4.79,-6.54 8.81,-14.37 7.74,-22.33 -6.8,0.17 -13.2,3.33 -17.46,8.64 -4.17,5.29 -7.2,11.39 -8.89,17.9 -2.03,6.44 -3.31,13.03 -5.58,19.35l0 -0.06zm0 0l712.01 -674.04 -712.01 674.04z"/>
        </g>
        <g>
          <path class="fil0"
            d="M366.71 667.44c21.77,-8.05 41.97,-19.97 59.55,-35.13 -7.11,-2.86 -15.25,-1.14 -22.33,1.73 -16.14,6.11 -29.5,17.96 -37.5,33.24l0.28 0.16zm0 0l688.23 -667.44 -688.23 667.44z"/>
        </g>
        <g>
          <path class="fil0"
            d="M349.63 682.04c10.98,1.2 22.15,2.03 33.05,0.16 10.9,-1.87 20.85,-6.09 30.88,-10.25 0.85,-0.27 1.57,-0.84 2.03,-1.61 0.08,-0.25 0.13,-0.51 0.13,-0.78 0,-0.72 -0.32,-1.41 -0.88,-1.86 -0.77,-0.61 -1.68,-1.03 -2.64,-1.24 -10.88,-3.05 -22.64,-1.62 -33.36,2.03 -10.18,3.47 -20.03,8.05 -29.27,13.58l0.05 -0.03zm0 0l705.31 -682.04 -705.31 682.04z"/>
        </g>
        <g>
          <path class="fil0"
            d="M286.86 709.12c-7.49,-15.15 -7,-32.81 -0.53,-48.42 4.55,6.94 5.12,15.8 4.28,24.08 -0.83,8.28 -3.35,16.77 -3.51,25.09l-0.24 -0.75zm0 0l768.08 -709.12 -768.08 709.12z"/>
        </g>
        <g>
          <path class="fil0"
            d="M256.89 694.01c-0.27,0 -0.55,-0.01 -0.82,-0.01 -18.69,0 -36.55,7.75 -49.33,21.39 1.84,0.21 3.72,0.33 5.59,0.33 7.63,0 15.14,-1.87 21.88,-5.43 8.35,-4.42 16.28,-9.73 23.55,-15.75l-0.87 -0.52zm0 0l798.05 -694.01 -798.05 694.01z"/>
        </g>
        <g>
          <path class="fil0"
            d="M236.75 687.27c-9.16,-0.73 -17.97,-1.87 -26.78,0.83 -8.95,2.55 -16.36,8.86 -20.3,17.3 1.3,0.1 2.61,0.16 3.92,0.16 7.34,0 14.58,-1.67 21.17,-4.89 7.74,-3.78 15.16,-8.27 22.09,-13.39l-0.1 -0.01zm0 0l818.19 -687.27 -818.19 687.27z"/>
        </g>
        <g>
          <path class="fil0"
            d="M266.58 687.6c-8.24,-5.4 -16.71,-10.9 -26.29,-13.14 -9.58,-2.23 -20.71,-0.59 -27.41,6.64 7.78,4.57 17.2,5.1 26.19,5.1 8.99,0 20.06,-0.12 28.54,2.88l-1.03 -1.48zm0 0l788.36 -687.6 -788.36 687.6z"/>
        </g>
        <g>
          <path class="fil0"
            d="M266.64 688.02c-14.09,-13.83 -19.43,-38.68 -13.77,-57.6 9.32,14.28 14.29,30.98 14.29,48.04 0,3.19 -0.17,6.39 -0.52,9.55l-0.01 0zm0 0l788.3 -688.02 -788.3 688.02z"/>
        </g>
        <g>
          <path class="fil0"
            d="M305.37 648.82c2.66,-6.09 4.53,-12.65 6.9,-18.94 2.17,-6.37 5.51,-12.3 9.85,-17.46 4.41,-5.18 10.68,-8.44 17.46,-9.05 -4.37,19.26 -16.68,35.82 -33.86,45.56l-0.35 -0.1zm0 0l749.57 -648.82 -749.57 648.82z"/>
        </g>
        <g>
          <path class="fil0"
            d="M298.35 657c-4.39,-6.09 -9.46,-14.21 -15.43,-18.8 -5.97,-4.59 -13.72,-7.25 -21.01,-5.5 7.65,13.43 21.21,22.47 36.55,24.36l-0.1 -0.06zm0 0l756.59 -657 -756.59 657z"/>
        </g>
        <g>
          <path class="fil0"
            d="M299.75 649.33c-3.15,-7.2 -5.5,-14.77 -6.94,-22.5 -0.39,-2.1 -0.59,-4.24 -0.59,-6.38 0,-5.76 1.42,-11.43 4.12,-16.52 7.74,14.62 10.15,30.31 3.82,45.56l-0.41 -0.16zm0 0l755.19 -649.33 -755.19 649.33z"/>
        </g>
        <g>
          <path class="fil0"
            d="M305.44 603.93c4.39,-14.48 17.64,-25.15 31.98,-30.05 1.41,-0.59 2.93,-0.89 4.46,-0.89 0.38,0 0.77,0.02 1.15,0.06 1.91,0.23 3.51,1.58 4.06,3.43 0.53,2.48 -1.52,4.69 -3.43,6.31 -11.2,9.56 -24.25,16.77 -38.29,21.14l0.08 -0zm0 0l749.5 -603.93 -749.5 603.93z"/>
        </g>
        <g>
          <path class="fil0"
            d="M305.6 592.1c0.55,-9.36 1.14,-18.82 4.18,-27.69 3.04,-8.87 8.89,-17.16 17.42,-21.01 1.44,9.42 -2.72,18.82 -7.74,26.94 -5.02,8.12 -11.08,15.77 -14.09,24.83l0.22 -3.07zm0 0l749.34 -592.1 -749.34 592.1z"/>
        </g>
        <g>
          <path class="fil0"
            d="M305.37 598.51c-3.63,-10.56 -4.06,-23.96 -10.33,-33.17 -4.41,-6.42 -11.49,-10.8 -15.31,-17.62 -1,2.85 -1.51,5.87 -1.51,8.89 0,3.84 0.82,7.63 2.4,11.12 2.88,6.22 6.85,11.91 11.7,16.75 4.69,4.99 8.69,8.75 13.05,14.03l-0 -0zm0 0l749.57 -598.51 -749.57 598.51z"/>
        </g>
        <path class="fil0"
          d="M305.44 909.54c-0.28,0 -0.53,-70.45 -0.55,-157.34 -0.02,-86.89 0.2,-157.36 0.49,-157.36 0.28,0 0.53,70.45 0.53,157.36 0,86.91 -0.18,157.34 -0.47,157.34z"/>
        <path class="fil0"
          d="M367.01 698.5c-0.85,0.4 -1.75,0.74 -2.66,0.99l-7.37 2.46c-6.09,2.03 -14.6,5.14 -23.75,8.87 -9.16,3.74 -17.62,7.07 -22.49,11.29 -1.96,1.65 -3.51,3.74 -4.53,6.09 -0.71,1.64 -0.83,2.66 -0.91,2.64 -0.08,-0.02 0,-0.26 0,-0.73 0.11,-0.69 0.28,-1.38 0.53,-2.03 0.92,-2.45 2.44,-4.64 4.41,-6.37 2.94,-2.49 6.24,-4.55 9.77,-6.09 3.9,-1.83 8.24,-3.74 12.83,-5.62 9.2,-3.76 17.7,-6.7 23.92,-8.63 3.11,-0.95 5.64,-1.69 7.41,-2.15 0.93,-0.32 1.89,-0.56 2.86,-0.71l-0 0z"/>
        <path class="fil0"
          d="M387.19 648.92c0,0 -0.24,0.3 -0.75,0.79l-2.25 2.13 -8.45 7.67 -28.1 25.01c-10.96,9.75 -20.42,19.08 -27,26.11 -3.29,3.49 -5.87,6.39 -7.63,8.43l-2.03 2.33c-0.47,0.53 -0.73,0.79 -0.77,0.77 0.17,-0.32 0.38,-0.62 0.61,-0.89 0.43,-0.57 1.06,-1.42 1.91,-2.46 1.67,-2.03 4.18,-5.1 7.41,-8.67 8.44,-9.19 17.5,-18.13 26.87,-26.41 11,-9.75 21.01,-18.47 28.3,-24.79l8.65 -7.43 2.38 -2.03c0.26,-0.21 0.55,-0.41 0.86,-0.58l-0 0z"/>
        <path class="fil0"
          d="M335.81 694.44c-0.28,-0.12 2.03,-5.4 4.28,-12.18 2.25,-6.78 3.39,-12.32 3.69,-12.28 -0.24,4.32 -1.16,8.58 -2.72,12.61 -0.97,2.88 -2.13,5.72 -3.41,8.46 -0.43,1.22 -1.06,2.37 -1.85,3.39l-0 0z"/>
        <path class="fil0"
          d="M305.5 737.09c-0.62,-0.63 -1.18,-1.31 -1.68,-2.03l-4.32 -5.54c-3.63,-4.71 -8.67,-11.19 -14.21,-18.27 -5.54,-7.09 -10.82,-13.46 -14.58,-18.07l-4.43 -5.48c-0.58,-0.62 -1.09,-1.3 -1.52,-2.03 0.67,0.54 1.29,1.16 1.83,1.83 1.14,1.22 2.72,3.02 4.67,5.28 3.9,4.49 9.18,10.8 14.82,17.91 5.64,7.11 10.58,13.66 14.07,18.47 1.75,2.42 3.15,4.39 4.06,5.77 0.51,0.67 0.95,1.4 1.3,2.17l-0 0z"/>
        <path class="fil0"
          d="M292.02 719.76c-2.71,-3.01 -4.65,-6.65 -5.64,-10.58 -0.89,-2.85 -1.34,-5.83 -1.34,-8.83 0,-0.61 0.02,-1.24 0.06,-1.85l0.45 0c-0.2,0.81 -0.35,1.24 -0.43,1.22 -0.08,-0.02 0,-0.47 0,-1.3l0.45 0c0.22,3.5 0.83,6.99 1.81,10.37 1.28,3.75 2.84,7.44 4.65,10.97l-0.01 -0z"/>
        <path class="fil0"
          d="M274.58 697.83c-1.21,-0.93 -2.55,-1.7 -3.96,-2.29 -2.44,-0.72 -4.99,-1.09 -7.55,-1.09 -1.14,0 -2.28,0.07 -3.42,0.22 -3.71,0.29 -7.42,0.9 -11.03,1.79 -1.48,0.46 -3.01,0.83 -4.54,1.09 1.35,-0.81 2.82,-1.41 4.34,-1.79 3.63,-1.09 7.39,-1.78 11.17,-2.03 1.04,-0.13 2.09,-0.2 3.14,-0.2 2.78,0 5.55,0.48 8.17,1.42 1.51,0.52 2.81,1.54 3.67,2.88l-0 0z"/>
        <path class="fil0"
          d="M270.43 692.53c0,0.14 -2.29,-0.93 -6.09,-2.21 -6.33,-2.17 -12.99,-3.28 -19.68,-3.28 -3.61,0 -7.23,0.33 -10.78,0.96 -3.9,0.69 -6.25,1.42 -6.31,1.26 0.49,-0.31 1.04,-0.55 1.61,-0.69 1.49,-0.51 3.03,-0.95 4.57,-1.28 3.78,-0.82 7.65,-1.25 11.53,-1.25 6.62,0 13.18,1.23 19.35,3.61 1.47,0.58 2.92,1.26 4.3,2.03 1.01,0.47 1.54,0.79 1.5,0.85z"/>
        <path class="fil0"
          d="M305.37 670.06c-1.78,-4.99 -3.28,-10.16 -4.42,-15.34 -1.47,-5.09 -2.64,-10.31 -3.42,-15.57 1.78,4.99 3.28,10.15 4.41,15.33 1.46,5.1 2.63,10.33 3.44,15.56l-0.01 0.01z"/>
        <path class="fil0"
          d="M305.64 670.06c-1.39,-3.17 -3.03,-6.25 -4.87,-9.18 -2.07,-2.77 -4.5,-5.28 -7.21,-7.43 1.03,0.26 1.98,0.75 2.78,1.44 2.04,1.49 3.82,3.32 5.26,5.4 2.19,2.83 3.59,6.21 4.04,9.76l-0 0z"/>
        <path class="fil0"
          d="M305.44 871.98c-0.1,0 -0.3,-1.71 -1.12,-4.69 -1.15,-4.2 -2.74,-8.3 -4.69,-12.18 -4.87,-9.95 -13.74,-22.56 -24.99,-35.18 -5.58,-6.37 -10.98,-12.38 -15.57,-18.13 -4.1,-5.04 -7.87,-10.44 -11.15,-16.07 -2.2,-3.8 -4.09,-7.81 -5.62,-11.93 -0.51,-1.48 -0.89,-2.62 -1.1,-3.41 -0.13,-0.39 -0.23,-0.8 -0.31,-1.21 0.1,0 0.61,1.6 1.77,4.49 1.65,4.03 3.63,7.97 5.88,11.7 3.35,5.55 7.12,10.87 11.25,15.86 4.61,5.68 10.03,11.67 15.61,18.05 11.29,12.67 20.12,25.44 24.85,35.55 1.93,3.95 3.43,8.12 4.44,12.4 0.32,1.54 0.55,2.72 0.63,3.53 0.07,0.34 0.11,0.7 0.11,1.05 0,0.06 -0,0.12 -0,0.18l-0 0z"/>
        <path class="fil0"
          d="M361.04 809.15c-0.93,0.6 -1.9,1.15 -2.9,1.62 -2.63,1.49 -5.19,3.18 -7.58,5.01 -3.49,2.75 -6.78,5.8 -9.82,9.05 -3.49,3.67 -7.07,7.96 -10.74,12.55 -7.33,9.18 -14.21,17.32 -18.27,23.81 -2.03,3.23 -3.59,5.93 -4.59,7.84 -0.46,1.02 -1,2.01 -1.61,2.94 0.05,-0.29 0.14,-0.57 0.26,-0.83 0.22,-0.53 0.53,-1.3 0.99,-2.27 1.26,-2.8 2.71,-5.51 4.32,-8.12 4.06,-6.66 10.8,-14.9 18.11,-24.08 3.67,-4.59 7.31,-8.87 10.86,-12.55 3.11,-3.28 6.52,-6.3 10.15,-9 2.46,-1.8 5.09,-3.41 7.82,-4.77 0.95,-0.49 1.75,-0.79 2.27,-1.02 0.53,-0.22 0.71,-0.24 0.71,-0.2z"/>
        <path class="fil0"
          d="M362.16 829.53c-2,0.44 -4.05,0.74 -6.09,0.89 -4.94,0.5 -9.86,1.47 -14.62,2.88 -4.72,1.52 -9.15,3.85 -13.09,6.86 -3.02,2.33 -4.45,4.26 -4.59,4.06 0.24,-0.51 0.54,-0.99 0.91,-1.42 0.97,-1.19 2.05,-2.29 3.23,-3.27 3.89,-3.26 8.39,-5.73 13.22,-7.29 4.83,-1.43 9.84,-2.32 14.86,-2.62 1.2,-0.13 2.41,-0.2 3.62,-0.2 0.85,0 1.71,0.04 2.55,0.1l-0 0z"/>
        <path class="fil0"
          d="M325.51 842.08c-0.32,-0.18 2.46,-4.43 4.61,-10.15 2.15,-5.73 2.5,-10.8 2.86,-10.74 0.06,0.44 0.09,0.89 0.09,1.33 0,0.66 -0.06,1.31 -0.19,1.95 -0.3,2.65 -0.91,5.28 -1.81,7.8 -0.92,2.5 -2.13,4.91 -3.57,7.15 -0.51,0.99 -1.18,1.89 -1.99,2.66l-0 0z"/>
        <path class="fil0"
          d="M379.09 754.41c-0.31,0.22 -0.64,0.39 -0.99,0.53l-2.88 1.32c-1.28,0.53 -2.82,1.22 -4.55,2.03 -1.73,0.81 -3.78,1.83 -5.89,3.11l-3.37 1.91c-1.16,0.67 -2.31,1.46 -3.53,2.23 -2.48,1.5 -4.97,3.35 -7.61,5.24 -11.36,8.45 -21.27,18.71 -29.32,30.35 -1.81,2.7 -3.57,5.26 -4.99,7.78 -0.71,1.26 -1.48,2.44 -2.03,3.63l-1.79 3.41c-1.2,2.17 -2.03,4.22 -2.9,5.99 -0.87,1.77 -1.48,3.33 -2.03,4.63l-1.22 2.92c-0.11,0.36 -0.28,0.7 -0.48,1.02 0.07,-0.37 0.17,-0.73 0.3,-1.08 0.26,-0.79 0.61,-1.79 1.04,-3 0.43,-1.22 1.04,-2.9 1.85,-4.71 0.81,-1.81 1.6,-3.9 2.76,-6.09 0.57,-1.1 1.14,-2.25 1.75,-3.47 0.61,-1.22 1.36,-2.4 2.03,-3.67 1.4,-2.56 3.15,-5.14 4.95,-7.9 4.04,-5.75 8.58,-11.26 13.47,-16.34 4.97,-5.09 10.37,-9.78 16.06,-14.03 2.68,-1.87 5.2,-3.72 7.71,-5.2 1.26,-0.75 2.42,-1.54 3.61,-2.19l3.41 -1.87c2.15,-1.24 4.22,-2.13 6.09,-2.98 1.5,-0.76 3.05,-1.45 4.62,-2.04l2.98 -1.16c0.3,-0.16 0.62,-0.28 0.95,-0.36l-0 0z"/>
        <path class="fil0"
          d="M335.06 783.91c0.42,-1.42 1.26,-2.69 2.42,-3.61 2.72,-2.34 6.18,-3.67 9.76,-3.74 0.01,0 0.04,0 0.05,0 3.51,0 6.99,0.69 10.23,2.03 1.38,0.44 2.68,1.07 3.88,1.89 -1.38,-0.29 -2.75,-0.7 -4.06,-1.22 -3.21,-1.08 -6.59,-1.65 -9.99,-1.66 -3.37,0.07 -6.64,1.22 -9.32,3.27 -1.06,0.94 -2.06,1.96 -2.96,3.04l0 0z"/>
        <path class="fil0"
          d="M328.56 790.71c1.31,-2.87 2.24,-5.91 2.76,-9.02 0.05,-0.77 0.07,-1.56 0.07,-2.34 0,-2.37 -0.23,-4.75 -0.68,-7.08 0.58,0.77 0.97,1.68 1.14,2.64 0.41,1.53 0.62,3.11 0.62,4.69 0,0.73 -0.05,1.47 -0.13,2.19 -0.26,2.31 -0.95,4.56 -2.03,6.62 -0.98,1.54 -1.75,2.36 -1.75,2.3z"/>
        <path class="fil0"
          d="M256.77 882.07c1.52,26.92 9.64,54.31 22.11,82l54.29 0c11.9,-27.41 19.45,-54.82 20.79,-82l-97.19 0z"/>
        <path class="fil1"
          d="M345.17 925.64c0,0.28 -17.87,0.51 -39.91,0.51 -22.05,0 -39.91,-0.22 -39.91,-0.51 0,-0.28 17.87,-0.51 39.91,-0.51 22.05,0 39.91,0.22 39.91,0.51z"/>
        <path class="fil1"
          d="M343.95 935.41c0,0.26 -16.75,0.51 -37.42,0.51 -20.67,0 -37.4,-0.24 -37.4,-0.51 0,-0.26 16.73,-0.53 37.4,-0.53 20.67,0 37.42,0.24 37.42,0.53z"/>
        <path class="fil1"
          d="M279.83 899.76c0.32,4.14 0.51,8.34 0.51,12.5 0,4.16 -0.19,8.35 -0.51,12.49 -0.32,-4.14 -0.51,-8.33 -0.51,-12.49 0,-4.16 0.19,-8.35 0.51,-12.49l-0 -0.01z"/>
        <path class="fil1"
          d="M308.85 899.76c0.33,4.31 0.51,8.62 0.51,12.94 0,4.32 -0.18,8.64 -0.5,12.93 -0.33,-4.3 -0.51,-8.62 -0.51,-12.93 0,-4.32 0.18,-8.64 0.5,-12.93l0 -0.01z"/>
        <path class="fil1"
          d="M336.13 899.53c0.34,4.37 0.51,8.81 0.51,13.2 0,4.39 -0.17,8.82 -0.5,13.19 -0.34,-4.37 -0.51,-8.8 -0.51,-13.19 0,-4.39 0.17,-8.82 0.5,-13.19l0 -0z"/>
        <path class="fil1"
          d="M352.23 899.76c0,0.28 -20.95,0.51 -46.69,0.51 -25.74,0 -46.82,-0.22 -46.82,-0.51 0,-0.28 20.95,-0.51 46.82,-0.51 25.87,0 46.69,0.22 46.69,0.51z"/>
        <g>
          <path class="fil0"
            d="M794.37 802.73c-7.44,-4.67 -15.89,-7.59 -24.63,-8.49 -4.06,-0.41 -8.43,-0.28 -11.65,2.15 -0.74,0.42 -1.2,1.2 -1.2,2.05 0,0.03 0,0.05 0,0.08 0.19,0.61 0.59,1.12 1.14,1.44 5.97,4.26 13.12,6.55 20.45,6.55 5.52,0 10.96,-1.3 15.89,-3.78l0 -0zm0 0l260.57 -802.73 -260.57 802.73z"/>
        </g>
        <g>
          <path class="fil0"
            d="M793.68 802.02c-5.69,-4.16 -11.05,-8.89 -15.92,-14 -4.9,-5.15 -8.34,-11.53 -9.97,-18.45 -0.21,-0.71 -0.32,-1.44 -0.32,-2.18 0,-1.38 0.39,-2.74 1.12,-3.91 12.67,9.91 22.64,22.72 25.09,38.57l-0 -0.04zm0 0l261.26 -802.02 -261.26 802.02z"/>
        </g>
        <g>
          <path class="fil0"
            d="M794.19 802.63c-0.53,-3.19 -0.81,-6.43 -0.81,-9.67 0,-3.76 0.37,-7.53 1.1,-11.22 1.42,-6.93 5.39,-13.09 11.12,-17.24 2.19,5.12 1.26,11.02 -0.28,16.38 -2.36,8.26 -6.08,16.14 -10.94,23.23l-0.18 -1.48zm0 0l260.75 -802.63 -260.75 802.63z"/>
        </g>
        <g>
          <path class="fil0"
            d="M806.56 824.84c-7.45,1.26 -14.34,4.81 -19.69,10.15 -5.67,5.14 -9.62,11.92 -11.31,19.39 7.41,-0.45 13.68,-5.66 18.27,-11.53 4.59,-5.87 7.69,-12.18 12.71,-17.74l0.02 -0.26zm0 0l248.38 -824.84 -248.38 824.84z"/>
        </g>
        <g>
          <path class="fil0"
            d="M809.32 828.47c-2.23,-5.68 -3.39,-11.74 -3.39,-17.85 0,-10.11 3.15,-19.99 9.01,-28.23 4.3,15.29 2.72,32.48 -5.62,46.08l0 0zm0 0l245.62 -828.47 -245.62 828.47z"/>
        </g>
        <g>
          <path class="fil0"
            d="M825.74 848.02c-0.72,-0.04 -1.44,-0.07 -2.17,-0.07 -13.35,0 -25.57,7.56 -31.52,19.52 -0.43,0.83 -0.79,1.89 -0.22,2.64 0.46,0.45 1.08,0.7 1.73,0.7 0.17,0 0.34,-0.02 0.51,-0.05 6.64,-0.43 12.51,-4.43 17.38,-8.97 4.87,-4.55 9.08,-9.81 14.43,-13.74l-0.14 -0.02zm0 0l229.2 -848.02 -229.2 848.02z"/>
        </g>
        <g>
          <path class="fil0"
            d="M825.21 846.97c-1.87,-6.02 -2.82,-12.3 -2.82,-18.6 0,-5.54 0.74,-11.09 2.19,-16.44 1.24,-4.53 3.31,-9.28 7.49,-11.39 0.24,-0.16 0.52,-0.25 0.8,-0.25 0.11,0 0.23,0.01 0.34,0.04 0.34,0.18 0.6,0.49 0.73,0.85 1.2,2.71 1.82,5.63 1.82,8.59 0,0.49 -0.02,0.98 -0.05,1.46 -0.25,3.41 -0.79,6.83 -1.59,10.15 -1.32,6.23 -2.03,12.91 -5.42,18.27 -0.8,1.3 -1.53,2.66 -2.17,4.06 -0.65,1.36 -0.65,1.85 -1.24,2.92l-0.08 0.33zm0 0l229.73 -846.97 -229.73 846.97z"/>
        </g>
        <g>
          <path class="fil0"
            d="M868.7 853.45c-0.74,-3.29 -1.13,-6.66 -1.13,-10.03 0,-9.78 3.18,-19.3 9.04,-27.12 0.57,-0.75 1.32,-1.54 2.25,-1.44 1.42,0.12 1.79,2.03 1.73,3.45 -0.57,12.6 -4.7,24.78 -11.89,35.14l-0 0zm0 0l186.24 -853.45 -186.24 853.45z"/>
        </g>
        <g>
          <path class="fil0"
            d="M872.62 856.13c4.08,0.96 8.26,1.45 12.46,1.45 11.47,0 22.64,-3.65 31.9,-10.4 -4.99,-2.52 -10.52,-3.83 -16.11,-3.83 -2.66,0 -5.32,0.3 -7.91,0.89 -8.02,1.83 -15.35,5.42 -20.3,11.96l-0.04 -0.06zm0 0l182.32 -856.13 -182.32 856.13z"/>
        </g>
        <g>
          <path class="fil0"
            d="M875.93 847.96c8.91,-13.75 23.89,-22.41 40.26,-23.27 -2.21,6.45 -6.97,11.72 -13.18,14.56 -6.15,2.75 -12.66,4.67 -19.32,5.64 -2.56,0.51 -6.09,1.06 -7.76,3.07l-0 0zm0 0l179.01 -847.96 -179.01 847.96z"/>
        </g>
        <g>
          <path class="fil0"
            d="M869.49 808.38c2.51,-7.65 4.26,-15.57 5.14,-23.57 0.16,-1.43 0.24,-2.87 0.24,-4.32 0,-6.65 -1.7,-13.2 -4.93,-19.01 -7.78,15.08 -8.57,32.69 -0.69,47.71l0.24 -0.81zm0 0l185.45 -808.38 -185.45 808.38z"/>
        </g>
        <path class="fil0"
          d="M895.74 795.12c9.12,-16.55 27.69,-29.78 46.51,-31.63 -7.27,18.07 -27.04,32.02 -46.51,31.63z"/>
        <g>
          <path class="fil0"
            d="M890.02 798.45c13.58,2.03 25.15,10.74 37.86,16 2.28,1.11 4.79,1.69 7.33,1.69 0.41,0 0.82,-0.02 1.22,-0.05 3.67,-0.04 6.62,-3.03 6.62,-6.7 0,-1.99 -0.89,-3.88 -2.42,-5.16 -1.79,-1.65 -3.89,-2.93 -6.17,-3.76 -13.85,-5.77 -28.67,-5.91 -43.22,-2.42l-1.22 0.39zm0 0l164.92 -798.45 -164.92 798.45z"/>
        </g>
        <g>
          <path class="fil0"
            d="M882.16 807.89c3.09,0.89 4.06,2.48 6.56,4.55 8.3,7.06 18.14,12.1 28.71,14.74 1.1,0.28 2.54,0.39 3.09,-0.61 0.55,-1 -0.14,-1.91 -0.75,-2.68 -4.61,-5.41 -10.61,-9.48 -17.34,-11.75 -6.62,-2.48 -12.36,-5.44 -20.3,-4.81l0.04 0.57zm0 0l172.78 -807.89 -172.78 807.89z"/>
        </g>
        <g>
          <path class="fil0"
            d="M873.29 750.35c10.04,9.27 23.21,14.42 36.88,14.42 1.59,0 3.18,-0.07 4.76,-0.21 0.02,-0 0.03,-0 0.05,-0 0.68,0 1.35,-0.25 1.86,-0.69 1.04,-1.14 -0.22,-2.9 -1.44,-3.84 -12.18,-9.56 -27.06,-13.52 -42.11,-9.64l0 -0.04zm0 0l181.65 -750.35 -181.65 750.35z"/>
        </g>
        <g>
          <path class="fil0"
            d="M883.81 746.49c9.97,-7.33 22.03,-11.29 34.4,-11.29 5.96,0 11.9,0.92 17.57,2.72 -6.79,6.31 -15.53,10.14 -24.77,10.87 -2.35,0.21 -4.75,0.32 -7.12,0.32 -6.77,0 -13.55,-0.89 -20.09,-2.62l0 0zm0 0l171.14 -746.49 -171.14 746.49z"/>
        </g>
        <g>
          <path class="fil0"
            d="M879.64 720.06c-1.2,-12.18 -0.43,-21.87 -1.26,-34.15 0,-0.97 -0.28,-2.15 -1.2,-2.52 -1.28,-0.49 -2.35,1.08 -2.76,2.38 -1.18,3.78 -1.79,7.73 -1.79,11.69 0,7.99 2.45,15.79 7.01,22.34l-0 0.26zm0 0l175.3 -720.06 -175.3 720.06z"/>
        </g>
        <g>
          <path class="fil0"
            d="M878.75 721.4c8,-5.13 14.92,-11.84 20.3,-19.68 4.06,-5.46 7.37,-12.02 6.46,-18.74 -5.69,0.16 -11.03,2.82 -14.6,7.25 -3.48,4.42 -6.03,9.53 -7.45,14.98 -1.6,5.38 -2.74,10.9 -4.65,16.24l-0.06 -0.06zm0 0l176.19 -721.4 -176.19 721.4z"/>
        </g>
        <g>
          <path class="fil0"
            d="M898.65 715.88c18.21,-6.74 35.12,-16.7 49.82,-29.37 -5.97,-2.4 -12.77,-0.95 -18.72,1.44 -13.5,5.1 -24.68,15.02 -31.37,27.81l0.26 0.12zm0 0l156.29 -715.88 -156.29 715.88z"/>
        </g>
        <g>
          <path class="fil0"
            d="M884.33 728.1c4.73,0.67 9.5,1.01 14.28,1.01 4.48,0 8.97,-0.3 13.4,-0.89 8.97,-1.48 17.44,-5.06 25.82,-8.57 0.73,-0.22 1.36,-0.7 1.76,-1.34 0.07,-0.21 0.11,-0.43 0.11,-0.65 0,-0.6 -0.27,-1.18 -0.74,-1.56 -0.65,-0.51 -1.41,-0.86 -2.21,-1.04 -3.66,-0.88 -7.43,-1.33 -11.2,-1.33 -5.7,0 -11.38,1.02 -16.72,3.01 -8.54,2.89 -16.76,6.73 -24.5,11.35l-0.01 0zm0 0l170.61 -728.1 -170.61 728.1z"/>
        </g>
        <g>
          <path class="fil0"
            d="M831.83 750.76c-3.03,-6.48 -4.61,-13.57 -4.61,-20.73 0,-6.8 1.42,-13.54 4.17,-19.75 3.82,5.81 4.28,13.22 3.57,20.12 -0.71,6.9 -2.8,14.05 -2.94,20.99l-0.18 -0.63zm0 0l223.11 -750.76 -223.11 750.76z"/>
        </g>
        <g>
          <path class="fil0"
            d="M806.76 738.13c-0.24,0 -0.5,-0.01 -0.75,-0.01 -15.62,0 -30.56,6.48 -41.22,17.89 1.54,0.19 3.09,0.28 4.64,0.28 6.39,0 12.69,-1.56 18.34,-4.54 6.98,-3.7 13.6,-8.16 19.7,-13.2l-0.72 -0.43zm0 0l248.18 -738.13 -248.18 738.13z"/>
        </g>
        <g>
          <path class="fil0"
            d="M789.91 732.49c-7.67,-0.61 -15.04,-1.56 -22.33,0.69 -7.52,2.11 -13.76,7.4 -17.07,14.47 1.03,0.08 2.08,0.12 3.11,0.12 6.2,0 12.34,-1.44 17.9,-4.18 6.46,-3.17 12.68,-6.94 18.48,-11.2l-0.09 0.1zm0 0l265.03 -732.49 -265.03 732.49z"/>
        </g>
        <g>
          <path class="fil0"
            d="M814.86 732.75c-6.9,-4.53 -13.97,-9.12 -22.01,-10.98 -8.04,-1.87 -17.32,-0.47 -22.84,5.62 6.5,3.8 14.37,4.26 21.91,4.24 7.53,-0.02 16.79,0 23.88,2.44l-0.93 -1.32zm0 0l240.08 -732.75 -240.08 732.75z"/>
        </g>
        <g>
          <path class="fil0"
            d="M814.9 733.12c-11.8,-11.57 -16.24,-32.36 -11.51,-48.2 7.79,11.93 11.95,25.9 11.95,40.16 0,2.68 -0.15,5.37 -0.44,8.03l-0 0zm0 0l240.04 -733.12 -240.04 733.12z"/>
        </g>
        <g>
          <path class="fil0"
            d="M847.3 700.31c2.23,-5.16 3.8,-10.58 5.79,-15.84 1.82,-5.33 4.62,-10.3 8.24,-14.62 3.68,-4.34 8.93,-7.06 14.6,-7.58 -3.67,16.12 -13.95,29.97 -28.32,38.13l-0.31 -0.1zm0 0l207.64 -700.31 -207.64 700.31z"/>
        </g>
        <g>
          <path class="fil0"
            d="M841.46 707.09c-3.69,-5.06 -7.94,-11.94 -12.93,-15.71 -4.99,-3.78 -11.47,-6.09 -17.56,-4.61 6.39,11.18 17.68,18.71 30.45,20.3l0.04 0.02zm0 0l213.49 -707.09 -213.49 707.09z"/>
        </g>
        <g>
          <path class="fil0"
            d="M842.61 700.73c-2.63,-6.03 -4.58,-12.36 -5.81,-18.82 -0.33,-1.76 -0.49,-3.57 -0.49,-5.36 0,-4.81 1.18,-9.54 3.44,-13.78 6.48,12.18 8.55,25.36 3.21,38.11l-0.34 -0.14zm0 0l212.33 -700.73 -212.33 700.73z"/>
        </g>
        <g>
          <path class="fil0"
            d="M847.36 662.77c3.67,-12.18 14.78,-21.05 26.76,-25.15 1.2,-0.5 2.48,-0.75 3.78,-0.75 0.3,0 0.61,0.01 0.91,0.04 1.62,0.18 2.99,1.31 3.45,2.88 0.45,2.03 -1.26,3.92 -2.86,5.3 -9.37,7.98 -20.29,14.01 -32.04,17.68l0 0.01zm0 0l207.58 -662.77 -207.58 662.77z"/>
        </g>
        <g>
          <path class="fil0"
            d="M847.5 652.84c0.47,-7.82 0.95,-15.73 3.49,-23.14 2.54,-7.41 7.45,-14.35 14.58,-17.6 1.22,7.9 -2.27,15.75 -6.48,22.54 -4.2,6.78 -9.26,13.22 -11.8,20.79l0.2 -2.58zm0 0l207.44 -652.84 -207.44 652.84z"/>
        </g>
        <g>
          <path class="fil0"
            d="M847.3 658.22c-3.02,-8.83 -3.33,-20.06 -8.63,-27.75 -3.69,-5.38 -9.62,-9.05 -12.81,-14.74 -0.84,2.38 -1.27,4.9 -1.27,7.43 0,3.21 0.69,6.38 2.02,9.3 2.39,5.21 5.72,9.97 9.78,14.01 3.92,4.18 7.27,7.33 10.9,11.75l-0 -0zm0 0l207.64 -658.22 -207.64 658.22z"/>
        </g>
        <path class="fil0"
          d="M847.36 918.43c-0.22,0 -0.43,-58.88 -0.45,-131.64 -0.02,-72.76 0.16,-131.64 0.39,-131.64 0.22,0 0.45,58.88 0.47,131.64 0.02,72.76 -0.16,131.64 -0.41,131.64z"/>
        <path class="fil0"
          d="M898.89 741.87c-0.71,0.35 -1.46,0.63 -2.23,0.83l-6.09 2.03c-5.14,1.75 -12.18,4.28 -19.88,7.43 -7.69,3.15 -14.76,5.89 -18.82,9.42 -1.63,1.36 -2.93,3.08 -3.8,5.02 -0.59,1.38 -0.69,2.23 -0.77,2.21 -0.02,-0.1 -0.03,-0.2 -0.03,-0.31 0,-0.1 0.01,-0.2 0.03,-0.3 0.08,-0.59 0.23,-1.17 0.43,-1.73 0.78,-2.05 2.05,-3.89 3.69,-5.34 2.45,-2.07 5.19,-3.78 8.12,-5.08 3.27,-1.52 6.9,-3.11 10.74,-4.69 7.69,-3.15 14.82,-5.6 20.02,-7.23 2.6,-0.79 4.71,-1.4 6.19,-1.79 0.78,-0.22 1.59,-0.39 2.39,-0.49z"/>
        <path class="fil0"
          d="M915.76 700.41c-0.17,0.24 -0.38,0.46 -0.61,0.65l-1.89 1.79c-1.77,1.58 -4.06,3.76 -7.07,6.42l-23.51 20.91c-9.18,8.12 -17.09,15.98 -22.6,21.85 -2.74,2.94 -4.91,5.38 -6.39,7.07l-1.71 2.03c-0.41,0.45 -0.61,0.67 -0.65,0.65 0.14,-0.27 0.31,-0.52 0.51,-0.75 0.37,-0.47 0.87,-1.18 1.58,-2.03 1.42,-1.77 3.51,-4.26 6.21,-7.27 7.04,-7.7 14.63,-15.15 22.48,-22.08 9.22,-8.12 17.58,-15.47 23.67,-20.75l7.25 -6.21 2.03 -1.64c0.42,-0.45 0.67,-0.66 0.69,-0.62z"/>
        <path class="fil0"
          d="M872.78 738.48c-0.24,0 1.69,-4.53 3.59,-10.15 1.91,-5.62 2.82,-10.33 3.07,-10.29 -0.18,3.61 -0.95,7.18 -2.25,10.56 -0.82,2.4 -1.79,4.78 -2.86,7.08 -0.37,1.01 -0.89,1.95 -1.54,2.8l0 0z"/>
        <path class="fil0"
          d="M847.42 774.09c-0.53,-0.5 -1.01,-1.05 -1.42,-1.65l-3.61 -4.65c-3.05,-3.92 -7.25,-9.36 -11.96,-15.29 -4.71,-5.93 -9.05,-11.29 -12.18,-15.12 -1.46,-1.85 -2.72,-3.37 -3.69,-4.59 -0.48,-0.54 -0.91,-1.13 -1.28,-1.75 0.56,0.45 1.08,0.97 1.54,1.52 0.93,1.04 2.27,2.54 3.9,4.41 3.27,3.78 7.67,9.03 12.4,14.98 4.73,5.95 8.85,11.45 11.78,15.47 1.46,2.03 2.62,3.67 3.41,4.81 0.43,0.58 0.8,1.2 1.12,1.85l0 0z"/>
        <path class="fil0"
          d="M836.14 759.67c-2.28,-2.52 -3.91,-5.57 -4.73,-8.87 -0.74,-2.4 -1.12,-4.9 -1.12,-7.41 0,-0.51 0.02,-1.02 0.05,-1.52l0.37 0c-0.16,0.69 -0.28,1.04 -0.35,1.04 -0.06,0 0,-0.41 0,-1.1l0.37 0c0.19,2.94 0.71,5.86 1.53,8.69 1.06,3.15 2.37,6.23 3.9,9.18l0 0z"/>
        <path class="fil0"
          d="M821.54 741.32c-1.01,-0.77 -2.12,-1.41 -3.29,-1.91 -2.04,-0.61 -4.16,-0.92 -6.29,-0.92 -0.96,0 -1.93,0.06 -2.89,0.19 -3.11,0.24 -6.21,0.74 -9.24,1.48 -1.24,0.39 -2.51,0.7 -3.79,0.91 1.13,-0.67 2.36,-1.17 3.63,-1.48 3.03,-0.94 6.17,-1.54 9.34,-1.77 0.88,-0.11 1.77,-0.18 2.66,-0.18 2.32,0 4.62,0.41 6.8,1.19 1.28,0.44 2.36,1.32 3.07,2.48l0 0z"/>
        <path class="fil0"
          d="M818.09 736.87c0,0.14 -1.93,-0.77 -5.06,-1.85 -5.29,-1.81 -10.86,-2.74 -16.45,-2.74 -3.03,0 -6.07,0.27 -9.05,0.81 -3.27,0.57 -5.24,1.18 -5.3,1.06 0.42,-0.26 0.88,-0.46 1.36,-0.59 1.24,-0.43 2.53,-0.79 3.82,-1.06 3.16,-0.69 6.39,-1.04 9.63,-1.04 1.14,0 2.29,0.05 3.43,0.13 4.37,0.32 8.68,1.3 12.77,2.88 1.24,0.46 2.44,1.01 3.61,1.62 0.45,0.19 0.87,0.45 1.24,0.77l0 0z"/>
        <path class="fil0"
          d="M847.3 718.07c-1.48,-4.17 -2.72,-8.47 -3.68,-12.81 -1.24,-4.27 -2.21,-8.65 -2.86,-13.04 1.48,4.18 2.72,8.47 3.67,12.81 1.23,4.26 2.2,8.66 2.86,13.04l0 0z"/>
        <path class="fil0"
          d="M847.55 718.07c-1.17,-2.65 -2.53,-5.22 -4.06,-7.67 -1.75,-2.32 -3.81,-4.42 -6.09,-6.22 0.85,0.22 1.65,0.63 2.32,1.2 1.71,1.25 3.21,2.78 4.41,4.53 1.84,2.37 3.03,5.19 3.43,8.16l0 0z"/>
        <path class="fil0"
          d="M847.36 887.03c0,0 -0.26,-1.42 -0.91,-3.92 -0.98,-3.5 -2.31,-6.91 -3.94,-10.15 -5.67,-10.65 -12.73,-20.59 -20.92,-29.45 -4.67,-5.34 -9.2,-10.37 -13.03,-15.19 -3.43,-4.22 -6.56,-8.73 -9.31,-13.43 -1.85,-3.17 -3.43,-6.53 -4.72,-9.97 -0.43,-1.24 -0.75,-2.19 -0.91,-2.86 -0.12,-0.33 -0.2,-0.67 -0.24,-1.02 -0.04,-0.35 0.51,1.34 1.46,3.76 1.39,3.37 3.06,6.66 4.93,9.78 2.81,4.62 5.97,9.09 9.41,13.26 3.86,4.77 8.41,9.76 13.07,15.1 8.25,8.87 15.28,18.89 20.84,29.67 1.62,3.31 2.89,6.81 3.72,10.4 0.23,0.97 0.41,1.96 0.52,2.95 0.03,0.2 0.05,0.4 0.05,0.6 0,0.15 -0.01,0.3 -0.03,0.45l0 0z"/>
        <path class="fil0"
          d="M893.86 834.44c-0.78,0.5 -1.6,0.97 -2.44,1.38 -2.2,1.24 -4.33,2.64 -6.33,4.18 -2.95,2.29 -5.75,4.85 -8.3,7.57 -2.92,3.09 -5.93,6.66 -8.99,10.5 -6.09,7.69 -11.86,14.5 -15.29,19.94 -1.39,2.11 -2.68,4.32 -3.84,6.56 -0.41,0.84 -0.86,1.66 -1.36,2.45 0.05,-0.24 0.13,-0.47 0.24,-0.69 0.16,-0.45 0.43,-1.1 0.81,-1.91 1.06,-2.32 2.27,-4.58 3.63,-6.74 4.64,-6.96 9.76,-13.77 15.16,-20.16 3.07,-3.84 6.09,-7.41 9.08,-10.5 2.61,-2.72 5.47,-5.26 8.5,-7.52 2.05,-1.53 4.25,-2.9 6.53,-4.06 0.81,-0.41 1.48,-0.65 1.91,-0.83 0.22,-0.08 0.45,-0.15 0.69,-0.18l0 0z"/>
        <path class="fil0"
          d="M894.83 851.5c-1.69,0.38 -3.43,0.63 -5.16,0.75 -4.12,0.43 -8.21,1.24 -12.18,2.41 -3.95,1.28 -7.66,3.23 -10.96,5.75 -2.52,2.03 -3.72,3.55 -3.82,3.47 0.18,-0.44 0.43,-0.85 0.75,-1.2 0.81,-1 1.71,-1.92 2.7,-2.74 3.25,-2.72 7.02,-4.8 11.06,-6.09 4.04,-1.21 8.22,-1.95 12.43,-2.19 1.16,-0.14 2.33,-0.21 3.5,-0.21 0.56,0 1.12,0.02 1.68,0.05l-0 0z"/>
        <path class="fil0"
          d="M864.17 861.99c-0.26,-0.14 2.03,-3.69 3.86,-8.47 1.83,-4.77 2.03,-9.05 2.4,-8.99 0.05,0.36 0.07,0.72 0.07,1.08 0,0.56 -0.06,1.13 -0.17,1.68 -0.25,2.22 -0.76,4.41 -1.5,6.52 -0.77,2.13 -1.77,4.18 -2.98,6.09 -0.44,0.78 -1.01,1.48 -1.67,2.09l0 0z"/>
        <path class="fil0"
          d="M909 788.66l-0.83 0.43 -2.42 1.1c-1.08,0.47 -2.35,1.04 -3.82,1.81 -1.46,0.77 -3.15,1.52 -4.91,2.6l-2.82 1.58c-0.97,0.57 -1.93,1.24 -2.96,1.87 -2.03,1.26 -4.06,2.82 -6.37,4.41 -4.7,3.56 -9.17,7.48 -13.28,11.67 -4.06,4.28 -7.86,8.88 -11.24,13.71 -1.5,2.27 -2.98,4.39 -4.06,6.52 -0.61,1.04 -1.24,2.03 -1.77,3.02l-1.5 2.86c-0.99,1.81 -1.73,3.53 -2.42,5.01 -0.69,1.48 -1.26,2.78 -1.67,3.86 -0.41,1.08 -0.75,1.81 -1.02,2.46 -0.1,0.3 -0.24,0.59 -0.42,0.85 0.05,-0.31 0.14,-0.62 0.26,-0.91l0.85 -2.52c0.39,-1.1 0.87,-2.44 1.54,-3.92 0.67,-1.48 1.34,-3.27 2.31,-5.1l1.46 -2.92c0.53,-0.99 1.14,-2.03 1.75,-3.07 1.16,-2.15 2.64,-4.3 4.06,-6.6 3.37,-4.88 7.17,-9.53 11.26,-13.84 4.17,-4.25 8.67,-8.19 13.44,-11.72 2.25,-1.58 4.37,-3.13 6.46,-4.37 1.06,-0.63 2.03,-1.3 3.02,-1.85l2.86 -1.54c1.79,-1.04 3.51,-1.79 4.99,-2.5 1.48,-0.71 2.8,-1.26 3.88,-1.69l2.5 -0.95c0.27,-0.13 0.56,-0.22 0.86,-0.26l0 0z"/>
        <path class="fil0"
          d="M872.15 813.33c0.35,-1.19 1.06,-2.24 2.03,-3.01 2.25,-1.97 5.13,-3.08 8.12,-3.13 0.05,0 0.1,0 0.15,0 2.89,0 5.76,0.57 8.44,1.67 1.15,0.36 2.25,0.9 3.25,1.58 -1.18,-0.23 -2.34,-0.57 -3.45,-1.02 -2.69,-0.91 -5.52,-1.38 -8.36,-1.38 0,0 -0.01,0 -0.01,0 -2.82,0.05 -5.56,1.01 -7.8,2.72 -0.85,0.79 -1.65,1.65 -2.38,2.56l0 0z"/>
        <path class="fil0"
          d="M866.65 819.01c1.09,-2.4 1.87,-4.94 2.31,-7.53 0.04,-0.65 0.07,-1.32 0.07,-1.98 0,-1.98 -0.2,-3.96 -0.59,-5.9 0.5,0.64 0.83,1.39 0.97,2.19 0.34,1.3 0.51,2.64 0.51,3.98 0,0.6 -0.03,1.21 -0.1,1.8 -0.24,1.93 -0.82,3.8 -1.73,5.52 -0.63,1.3 -1.36,1.97 -1.44,1.91z"/>
        <path class="fil0"
          d="M806.66 895.47c1.28,22.51 8.12,45.44 18.5,68.6l45.42 0c9.95,-22.94 16.24,-45.82 17.4,-68.6l-81.31 0z"/>
        <path class="fil1"
          d="M880.6 931.91c0,0.24 -14.94,0.43 -33.38,0.43 -18.44,0 -33.4,-0.18 -33.4,-0.43 0,-0.24 14.94,-0.43 33.4,-0.43 18.45,0 33.38,0.2 33.38,0.43z"/>
        <path class="fil1"
          d="M879.64 940.07c0,0.24 -14.01,0.43 -31.29,0.43 -17.28,0 -31.31,-0.18 -31.31,-0.43 0,-0.24 14.01,-0.43 31.31,-0.43 17.3,0 31.29,0.2 31.29,0.43z"/>
        <path class="fil1"
          d="M825.88 910.25c0.29,3.47 0.43,6.98 0.43,10.46 0,3.49 -0.14,6.99 -0.42,10.46 -0.29,-3.47 -0.43,-6.97 -0.43,-10.46 0,-3.49 0.14,-6.99 0.42,-10.46l0 -0z"/>
        <path class="fil1"
          d="M850.23 910.25c0.28,3.58 0.43,7.23 0.43,10.83 0,3.6 -0.15,7.25 -0.42,10.83 -0.28,-3.58 -0.43,-7.23 -0.43,-10.83 0,-3.6 0.15,-7.25 0.42,-10.83l0.01 0z"/>
        <path class="fil1"
          d="M873.07 910.11c0.29,3.66 0.43,7.37 0.43,11.04 0,3.67 -0.14,7.38 -0.42,11.04 -0.29,-3.66 -0.43,-7.36 -0.43,-11.04 0,-3.67 0.14,-7.38 0.42,-11.04l0.01 -0.01z"/>
        <path class="fil1"
          d="M886.53 910.25c0,0.24 -17.54,0.43 -39.16,0.43 -21.62,0 -39.16,-0.18 -39.16,-0.43 0,-0.24 17.54,-0.43 39.16,-0.43 21.62,0 39.16,0.28 39.16,0.43z"/>
        <polygon class="fil0"
          points="116.02,291.08 289.68,291.08 289.68,110.04 116.02,110.04 "/>
        <polygon class="fil1"
          points="104.26,291.08 277.93,291.08 277.93,110.04 104.26,110.04 "/>
        <path class="fil0"
          d="M277.97 291.12l-173.77 0 0 -181.14 173.77 0 0 181.14zm-173.64 -0.12l173.48 0 0 -180.91 -173.48 0 0 180.91z"/>
        <polygon class="fil2"
          points="127.61,266.71 254.58,266.71 254.58,134.36 127.61,134.36 "/>
        <path class="fil0"
          d="M127.57 267.61c-0.89,1.33 -1.94,2.56 -3.13,3.63 -2.03,2.15 -4.89,5.04 -8.12,8.12 -3.23,3.09 -6.09,5.95 -8.28,7.94 -1.1,1.16 -2.34,2.19 -3.67,3.07 0.91,-1.31 1.99,-2.5 3.19,-3.53 2.03,-2.03 4.89,-5.04 8.12,-8.12 3.23,-3.09 6.09,-5.95 8.3,-7.94 1.06,-1.19 2.28,-2.26 3.59,-3.17l-0 0z"/>
        <path class="fil0"
          d="M254.58 267.28c1.33,0.89 2.56,1.95 3.63,3.13 2.15,2.03 5.04,4.87 8.12,8.12 3.09,3.25 5.97,6.09 7.96,8.28 1.15,1.1 2.18,2.34 3.05,3.67 -1.32,-0.9 -2.54,-1.94 -3.63,-3.1 -2.03,-2.03 -5.04,-4.89 -8.12,-8.12 -3.09,-3.23 -5.97,-6.09 -7.96,-8.3 -1.16,-1.1 -2.18,-2.34 -3.05,-3.68z"/>
        <path class="fil0"
          d="M254.23 134.73c0.89,-1.34 1.95,-2.57 3.13,-3.66 2.03,-2.13 4.87,-5.04 8.12,-8.12 3.25,-3.09 6.09,-5.95 8.28,-7.94 1.09,-1.16 2.33,-2.18 3.67,-3.04 -0.9,1.31 -1.94,2.53 -3.11,3.61 -2.03,2.15 -4.89,5.06 -8.12,8.12 -3.23,3.07 -6.09,5.97 -8.3,7.96 -1.1,1.16 -2.34,2.19 -3.68,3.07l0 0z"/>
        <path class="fil0"
          d="M127.26 135.05c-1.33,-0.9 -2.56,-1.97 -3.65,-3.15 -2.03,-2.03 -5.04,-4.87 -8.12,-8.12 -3.09,-3.25 -5.95,-6.09 -7.94,-8.3 -1.17,-1.09 -2.2,-2.32 -3.04,-3.68 1.32,0.9 2.53,1.96 3.61,3.13 2.15,2.03 5.06,4.89 8.12,8.12 3.07,3.23 5.97,6.09 7.96,8.32 1.17,1.09 2.2,2.33 3.07,3.68l-0 -0z"/>
        <path class="fil0"
          d="M254.23 266.71c-0.01,-0.1 -0.02,-0.21 -0.02,-0.31 0,-0.11 0.01,-0.21 0.02,-0.31 0,-0.45 0,-1.06 0,-1.85 0,-1.67 0,-4.06 0,-7.15 0,-6.27 0,-15.39 -0.12,-26.98 0,-23.18 -0.14,-56.2 -0.24,-95.75l0.49 0.49 -126.79 0.08 0.57 -0.57c0,48.58 0,94.04 0,132.35l-0.49 -0.47 91.68 0.24 25.74 0.12 6.82 0 2.38 0 -0.57 0 -1.71 0 -6.72 0 -25.64 0.12 -92.07 0.47 -0.49 0 0 -0.49c0,-38.31 0,-83.77 0,-132.35l0 -0.55 0.49 0 126.6 0 0.49 0 0 0.49c0,39.67 -0.18,72.8 -0.24,96.07 0,11.53 0,20.61 -0.14,26.86 0,3.05 0,5.4 0,7.04 0,0.77 0,1.36 0,1.81 0,0.21 -0.01,0.42 -0.04,0.63l-0 -0z"/>
        <polygon class="fil3"
          points="169.92,221.72 212.29,221.72 212.29,179.35 169.92,179.35 "/>
        <g>
          <path class="fil4"
            d="M490.65 947.93c-2.64,-2.25 -8.49,-9.38 -4.06,-17.68 1.67,-3.05 5.18,-4.55 8.36,-5.89 3.28,-1.1 6.37,-2.71 9.16,-4.75 4.95,-4.22 6.33,-11.23 9.62,-16.87 3.8,-6.48 10.86,-11.31 18.27,-10.98 8.55,0.41 15.67,7.37 18.9,15.33 3.23,7.96 3.35,16.79 3.41,25.4 0,4.75 -0.18,10.15 -3.65,13.32 -3.47,3.17 -8.12,2.98 -12.43,2.86l-46.69 -1.44 -0.89 0.71zm0 0l564.29 -947.93 -564.29 947.93z"/>
        </g>
        <path class="fil0"
          d="M579.96 819.52l-122.81 0 22.13 131.96c0.93,5.61 5.01,10.18 10.48,11.73l0.43 0.12c0.36,0.11 0.73,0.21 1.1,0.28 0.82,0.15 1.66,0.25 2.5,0.28l0 0.12 0.61 0 54.82 0c1.01,-0.01 2.02,-0.11 3.01,-0.31 6.56,-1.02 11.65,-6.29 12.42,-12.89l10.66 -90.89 0.47 -3.61 -0 0 4.22 -35.97 -0.02 -0.83zm-23.16 84.13l-12.61 0 1.28 -38.27 14.54 0 -3.21 38.27zm4.49 -38.21l12.06 0 -4.49 38.27 -10.88 0 3.31 -38.27zm-36 80.64l-0.77 -33.26 18.15 0 -1.12 33.26 -16.26 0zm-19.63 -33.26l17.64 0 0.77 33.26 -15.81 0 -2.6 -33.26zm1.36 33.26l-14.78 0c-1.4,-8.97 -3.23,-20.65 -5.22,-33.26l17.42 0 2.58 33.26zm-2.03 -42.43l-3 -38.21 20.3 0 0.87 38.27 -18.17 -0.06zm19.35 0l-0.87 -38.21 20.81 0 -1.26 38.27 -18.68 -0.06zm-1.08 -47.47l-0.87 -35.41 23.41 0 -1.18 35.45 -21.36 -0.04zm-1.22 0l-20.79 0 -2.74 -35.41 22.66 0 0.87 35.41zm-21.97 0l-21.93 0c-0.77,-4.89 -1.52,-9.52 -2.17,-13.68 -2.33,-14.33 -3.27,-19.69 -3.67,-21.72l24.97 0 2.8 35.41zm0.71 9.2l2.98 38.27 -18.15 0c-0.61,-3.88 -1.22,-7.82 -1.85,-11.73 -1.42,-9.03 -2.84,-18.07 -4.18,-26.53l21.2 0zm-16.38 38.27l-11.9 0 -6.41 -38.21 12.18 0c1.93,11.76 4,24.93 6.09,38.21l0.04 0zm1.44 9.18c1.81,11.51 3.57,22.86 5.2,33.26l-11.37 0 -5.58 -33.26 11.76 0zm56.97 33.26l1.12 -33.26 12.18 0 -2.84 33.26 -10.46 0zm2.98 -89.9l1.18 -35.45 16.93 0 -3.05 35.45 -15.06 0zm-74.65 -35.41c0.49,2.58 2.72,16.53 5.73,35.45l-12.28 0 -5.99 -35.45 12.55 0zm92.74 125.35l-9.5 0 2.84 -33.26 10.56 0 -3.9 33.26zm10.54 -89.9l-12.38 0 3.07 -35.45 13.48 0 -4.16 35.45z"/>
        <polygon class="fil0"
          points="623.04,963.52 645.68,963.52 645.68,578.27 623.04,578.27 "/>
        <polygon class="fil0"
          points="634.01,902.46 631.67,895.47 578.93,965.92 585.85,965.92 "/>
        <polygon class="fil0"
          points="637.07,895.47 689.82,965.92 682.89,965.92 634.74,902.46 "/>
      </g>
      <g id="freepik--Board--inject-167">
        <polygon class="fil1"
          points="360.41,589.11 1020.11,589.11 1020.11,131.7 360.41,131.7 "/>
        <path class="fil5"
          d="M1020.13 589.11c0,-3.19 -0.18,-181.76 -0.47,-457.41l0.47 0.37 -659.66 0 -0 0 0.53 -0.45c0,165.58 0,321.85 0,457.41l-0.47 -0.41 659.7 0.41 -659.7 0.41 -0.49 0 0 -0.41c0,-135.56 0,-291.82 0,-457.41l0 -0.47 0.59 0 659.66 0 0.45 0 0 0.39c-0.43,275.8 -0.61,454.38 -0.61,457.57z"/>
        <g>
          <path class="fil6"
            d="M457.42 552.02c-14.44,-0.01 -26.16,-11.73 -26.17,-26.17l0 -301.24c0,0 0,0 0,0 0,-14.45 11.72,-26.17 26.17,-26.17 0.01,0 0.01,0 0.02,0l120.17 0c14.44,0.01 26.15,11.73 26.15,26.17 0,0.01 0,0.01 0,0.02l0 301.24c-0,0 -0,0 -0,0 0,14.44 -11.71,26.15 -26.15,26.15 -0.01,0 -0.03,0 -0.04,0l-120.15 0zm0 0l597.52 -552.02 -597.52 552.02z"/>
        </g>
        <g>
          <path class="fil2"
            d="M457.54 539.78c-10.09,0 -18.27,-8.18 -18.27,-18.27l0 -294.04c0,-10.09 8.18,-18.27 18.27,-18.27l28.58 0 68.03 0 23.31 0c10.09,-0 18.27,8.18 18.27,18.27l0 294.04c0,10.09 -8.18,18.27 -18.27,18.27l-119.93 0zm0 0l597.4 -539.78 -597.4 539.78z"/>
        </g>
        <path class="fil6"
          d="M430.74 240.65l1.02 0c1.5,0 2.72,1.22 2.72,2.72l-0 33.7c0,1.5 -1.22,2.72 -2.72,2.72l-1.02 0c-1.5,-0 -2.72,-1.22 -2.72,-2.72l-0 -33.7c0,-1.5 1.22,-2.72 2.72,-2.72l-0 0z"/>
        <path class="fil6"
          d="M430.74 286.87l1.02 0c1.5,0 2.72,1.22 2.72,2.72l-0 33.7c0,1.5 -1.22,2.72 -2.72,2.72l-1.02 0c-1.5,0 -2.72,-1.22 -2.72,-2.72l-0 -33.7c0,-1.5 1.22,-2.72 2.72,-2.72l-0 0z"/>
        <path class="fil6"
          d="M603.31 272.64l1.02 0c1.5,0 2.72,1.22 2.72,2.72l0 62.16c0,1.5 -1.22,2.72 -2.72,2.72l-1.02 0c-1.5,-0 -2.72,-1.22 -2.72,-2.72l-0 -62.16c0,-1.5 1.22,-2.72 2.72,-2.72l-0 -0z"/>
        <path class="fil7"
          d="M729.99 241.25l166.99 0c6.31,0 11.43,5.12 11.43,11.43l0 2.94c0,6.31 -5.12,11.43 -11.43,11.43l-166.99 0c-6.31,0 -11.43,-5.12 -11.43,-11.43l0 -2.94c0,-6.31 5.12,-11.43 11.43,-11.43z"/>
        <path class="fil0"
          d="M681.25 307.85l114.02 0c3.15,0 5.71,2.55 5.71,5.71l0 1.48c0,3.15 -2.55,5.71 -5.71,5.71l-114.02 0c-3.15,0 -5.7,-2.55 -5.7,-5.71l-0 -1.48c0,-3.15 2.56,-5.71 5.71,-5.71l-0 0z"/>
        <path class="fil0"
          d="M830 307.85l114.02 0c3.15,0 5.71,2.55 5.71,5.71l0 1.48c0,3.15 -2.55,5.71 -5.71,5.71l-114.02 0c-3.15,0 -5.71,-2.55 -5.71,-5.71l0 -1.48c0,-3.15 2.55,-5.71 5.71,-5.71z"/>
        <path class="fil0"
          d="M683.36 494.22l40.75 0c3.15,-0 5.71,2.55 5.71,5.7l-0 1.48c0,3.15 -2.55,5.71 -5.7,5.71l-40.75 0c-3.15,0 -5.7,-2.55 -5.7,-5.71l-0 -1.48c0,-3.15 2.56,-5.71 5.71,-5.71l-0 0z"/>
        <path class="fil0"
          d="M794.17 491.56l40.75 0c3.15,0 5.71,2.55 5.71,5.71l0 1.48c0,3.15 -2.55,5.71 -5.71,5.71l-40.75 0c-3.15,0 -5.71,-2.55 -5.71,-5.71l0 -1.48c0,-3.15 2.55,-5.71 5.71,-5.71z"/>
        <path class="fil0"
          d="M896.09 492.47l40.75 0c3.15,0 5.71,2.55 5.71,5.71l0 1.48c0,3.15 -2.55,5.71 -5.71,5.71l-40.75 0c-3.15,0 -5.71,-2.55 -5.71,-5.71l0 -1.48c0,-3.15 2.55,-5.71 5.71,-5.71z"/>
        <path class="fil0"
          d="M683.36 364.83l114.02 0c3.15,-0 5.71,2.55 5.71,5.7l-0 1.48c0,3.15 -2.55,5.71 -5.7,5.71l-114.02 0c-3.15,0 -5.7,-2.55 -5.7,-5.71l-0 -1.48c0,-3.15 2.56,-5.71 5.71,-5.71l-0 0z"/>
        <path class="fil0"
          d="M682.53 336.09l259.01 0c3.15,-0 5.71,2.55 5.71,5.7l0 1.48c0,3.15 -2.55,5.71 -5.71,5.71l-259.01 0c-3.15,0 -5.7,-2.55 -5.7,-5.71l-0 -1.48c0,-3.15 2.56,-5.71 5.71,-5.71l-0 0z"/>
        <path class="fil0"
          d="M722.43 428.22c-9.02,-10.32 -24.71,-11.38 -35.03,-2.35 -10.32,9.03 -11.38,24.71 -2.35,35.03 9.03,10.32 24.71,11.38 35.03,2.35 10.32,-9.03 11.38,-24.71 2.35,-35.03z"/>
        <path class="fil0"
          d="M828.71 424.36c-9.7,-9.7 -25.42,-9.7 -35.11,0 -9.7,9.7 -9.7,25.42 0,35.11 9.7,9.7 25.42,9.7 35.11,0 9.7,-9.7 9.7,-25.42 0,-35.11z"/>
        <path class="fil0"
          d="M923.4 418.64c-13.34,-3.17 -26.73,5.08 -29.89,18.43 -3.17,13.34 5.08,26.72 18.43,29.89 13.34,3.17 26.73,-5.08 29.89,-18.43 3.17,-13.34 -5.08,-26.72 -18.43,-29.89z"/>
        <polygon class="fil7"
          points="517.53,328.25 490.41,340 490.41,371.25 517.53,383.9 544.68,372.57 544.68,339.33 "/>
        <polygon class="fil2"
          points="517.55,352.73 490,340.94 490.79,339.09 517.53,350.52 544.25,338.4 545.1,340.25 "/>
        <polygon class="fil2"
          points="516.52,383.92 518.55,383.92 518.55,351.64 516.52,351.64 "/>
        <path class="fil7"
          d="M497.05 400.93l40.99 0c3.67,0 6.64,2.97 6.64,6.64l-0 2.54c0,3.67 -2.97,6.64 -6.64,6.64l-40.99 0c-3.67,0 -6.64,-2.97 -6.64,-6.64l-0 -2.54c0,-3.67 2.97,-6.64 6.64,-6.64l-0 0z"/>
        <path class="fil5"
          d="M1027.34 142.5l-674.13 0c-6.22,0 -11.27,-5.05 -11.27,-11.27l-0 0c0.01,-6.22 5.05,-11.25 11.27,-11.25 0,0 0,0 0,0l674.13 0c0.01,0 0.02,0 0.02,0 6.21,0 11.25,5.04 11.25,11.25 0,0 0,0 0,0 0,0 0,0.01 0,0.02 0,6.21 -5.04,11.25 -11.25,11.25 -0.01,0 -0.02,0 -0.02,0z"/>
      </g>
      <g id="freepik--speech-bubble-1--inject-167">
        <path class="fil1"
          d="M89.4 246.39l-3.94 -13.22c4.52,-7.28 6.92,-15.69 6.92,-24.26 0,-25.38 -20.58,-45.96 -45.96,-45.96 -25.38,0 -45.96,20.58 -45.96,45.96 0,25.38 20.58,45.96 45.96,45.96 10.13,0 19.99,-3.36 28.02,-9.53l0 0 14.96 1.04z"/>
        <path class="fil5"
          d="M89.4 246.39l-0.93 0 -2.82 -0.16 -11.23 -0.57c-0,0 -0,0 -0,0 -0.1,0 -0.18,-0.08 -0.18,-0.18 0,-0.01 0,-0.03 0,-0.04l-0 0 0.28 0.28c-6.02,4.71 -13.14,7.87 -20.69,9.14 -2.43,0.4 -4.91,0.61 -7.38,0.61 -2.47,0 -4.95,-0.21 -7.38,-0.61 -5.53,-0.84 -10.9,-2.71 -15.76,-5.49 -14.41,-8.24 -23.31,-23.58 -23.31,-40.19 0,-19.18 11.84,-36.39 29.75,-43.24 5.4,-2.08 11.14,-3.15 16.93,-3.15 1.41,0 2.83,0.06 4.24,0.19 23.63,2.4 41.62,22.32 41.62,46.07 0,0.88 -0.03,1.78 -0.07,2.66 -0.45,7.61 -2.8,14.99 -6.84,21.46l0 -0.14c1.22,4.28 2.17,7.61 2.84,9.91 0.3,1.08 0.53,1.91 0.71,2.52 0.08,0.27 0.15,0.55 0.2,0.83l-0.28 -0.89c-0.2,-0.61 -0.47,-1.44 -0.81,-2.54 -0.71,-2.26 -1.71,-5.5 -3.03,-9.73 -0.01,-0.02 -0.02,-0.05 -0.02,-0.08 0,-0.03 0.01,-0.06 0.02,-0.08 4.34,-7.15 6.65,-15.36 6.65,-23.72 0,-9.72 -3.11,-19.2 -8.86,-27.03 -3.65,-4.91 -8.25,-9.06 -13.52,-12.18 -5.71,-3.37 -12.12,-5.46 -18.72,-6.09 -1.44,-0.13 -2.89,-0.2 -4.33,-0.2 -5.58,0 -11.14,1.02 -16.36,2.99 -17.58,6.74 -29.2,23.64 -29.2,42.48 0,3.32 0.37,6.63 1.08,9.86 4.04,18.2 18.8,32.09 37.21,35.02 2.4,0.39 4.84,0.59 7.28,0.59 2.43,0 4.88,-0.2 7.28,-0.59 7.46,-1.21 14.53,-4.26 20.54,-8.85 0.04,-0.04 0.09,-0.06 0.14,-0.06 0.05,0 0.1,0.02 0.14,0.06 0.03,0.03 0.05,0.08 0.05,0.12 0,0.05 -0.02,0.09 -0.05,0.12l0 0 -0.14 -0.32 11.06 0.81 2.9 0.22 0.97 0.2z"/>
        <path class="fil5"
          d="M33.41 209.12c0,0.01 0,0.01 0,0.02 0,2.58 -2.09,4.67 -4.67,4.67 -2.58,0 -4.67,-2.09 -4.67,-4.67 0,-2.58 2.09,-4.67 4.67,-4.67 0,0 0,0 0,0 2.57,0 4.66,2.08 4.67,4.65z"/>
        <path class="fil5"
          d="M52.06 209.12c0,0.01 0,0.01 0,0.02 0,2.58 -2.09,4.67 -4.67,4.67 -2.58,0 -4.67,-2.09 -4.67,-4.67 0,-2.58 2.09,-4.67 4.67,-4.67 0.01,0 0.01,0 0.02,0 2.57,-0 4.65,2.08 4.65,4.65l-0 0z"/>
        <path class="fil5"
          d="M70.72 206.8c0.41,0.71 0.62,1.51 0.62,2.32 0,2.58 -2.09,4.68 -4.68,4.68 -1.68,0 -3.23,-0.9 -4.06,-2.35 -0.41,-0.71 -0.62,-1.51 -0.62,-2.32 0,-2.58 2.09,-4.68 4.68,-4.68 1.68,0 3.23,0.9 4.06,2.35l0 0z"/>
      </g>
      <g id="freepik--character-1--inject-167">
        <path class="fil8"
          d="M411.13 297.57c-1.36,4.36 -3.18,8.59 -5.4,12.59 -2.56,3.8 -5.42,4.71 -6.66,11.17 -1.24,6.46 -2.88,13.32 -2.88,13.32 0,0 -12.18,11.35 -11.63,11.53 0.55,0.18 13.64,19.41 13.64,19.41l20.6 -21.91 27.08 -19.27 10.15 -21.6 -1.08 -1.62 0.89 -4.16c0,0 -2.62,-4.47 -6.09,-0.63 0,0 0,-5.62 -5.42,-1.3 -5.42,4.32 -15.02,15.19 -15.84,15.41 -0.81,0.22 -11,5.32 -11,5.32l-5.16 0c2.15,-1.88 3.67,-4.39 4.33,-7.17 0.69,-4.16 3.09,-6.92 0.51,-9.95 -0.92,-1.1 -2.28,-1.73 -3.72,-1.73 -0.81,0 -1.62,0.21 -2.33,0.6l0 0z"/>
        <path class="fil9"
          d="M412.31 329.85c0.55,-0.26 1.08,-0.56 1.59,-0.89 1.47,-0.74 3.01,-1.35 4.59,-1.81 5.39,-1.42 10.95,-2.23 16.53,-2.37l0.16 -0 0.1 -0.1 2.92 -2.4 1.46 -1.2 0.12 -0.1 0 -0.14c0.57,-2.5 1.12,-4.89 1.64,-7.17 0.15,-1.02 0.65,-1.96 1.4,-2.66 0.48,-0.36 1.06,-0.55 1.66,-0.55 0.31,0 0.61,0.05 0.9,0.15l-0.24 -0.32c0.71,7.09 1.6,11.69 1.87,11.63 0.26,-0.06 -0.16,-1.16 -0.35,-3.19 -0.18,-2.03 -0.49,-4.97 -0.77,-8.51l0 -0.24 -0.22 0c-0.39,-0.14 -0.8,-0.22 -1.22,-0.22 -0.76,0 -1.49,0.24 -2.11,0.68 -0.92,0.8 -1.54,1.9 -1.75,3.11 -0.53,2.27 -1.1,4.65 -1.69,7.13l0.16 -0.22 -1.46 1.2 -2.9 2.42 0.26 -0.12c-5.64,0.15 -11.27,1.08 -16.67,2.7 -1.59,0.49 -3.13,1.18 -4.57,2.03 -0.52,0.32 -1.01,0.72 -1.42,1.18l-0 0z"/>
        <path class="fil9"
          d="M433.91 314.2c2.92,-2.7 5.65,-5.65 8.12,-8.77 2.68,-2.93 5.17,-6.09 7.39,-9.38 -2.92,2.72 -5.65,5.66 -8.12,8.79 -2.69,2.92 -5.19,6.06 -7.39,9.36l0 -0z"/>
        <path class="fil9"
          d="M446.88 310.04c0.12,0 0.49,-0.61 0.99,-1.69 0.62,-1.38 1.38,-2.7 2.25,-3.94 0.88,-1.19 2.04,-2.15 3.37,-2.8 1.04,-0.49 1.77,-0.55 1.77,-0.71 0,-0.16 -0.79,-0.26 -2.03,0 -1.55,0.53 -2.9,1.53 -3.86,2.86 -0.94,1.29 -1.66,2.72 -2.13,4.24 -0.35,1.26 -0.49,1.99 -0.37,2.03z"/>
        <path class="fil9"
          d="M426.8 313.08c2.02,0.67 3.95,1.6 5.73,2.78 1.6,1.41 3.02,3.03 4.22,4.79 0.1,0 0,-0.79 -0.57,-1.89 -1.52,-2.87 -4.24,-4.94 -7.41,-5.64 -1.2,-0.24 -1.95,-0.16 -1.97,-0.04z"/>
        <path class="fil5"
          d="M236.14 897.93l-2.29 41.8c0,0 41.72,16.36 42.05,24.14l-81.21 -1.54 0.89 -65.27 40.56 0.87z"/>
        <g>
          <path class="fil0"
            d="M208.78 935.71c-1.42,0.4 -2.4,1.7 -2.4,3.18 0,0.19 0.02,0.38 0.05,0.57 0.35,1.43 1.63,2.43 3.1,2.43 0.19,0 0.39,-0.02 0.58,-0.05 1.51,-0.43 2.56,-1.81 2.56,-3.38 0,-0.23 -0.02,-0.46 -0.07,-0.68 -0.49,-1.3 -1.73,-2.17 -3.12,-2.17 -0.32,0 -0.64,0.05 -0.94,0.14l0.24 -0.04zm0 0l0 0 0 0z"/>
        </g>
        <path class="fil6"
          d="M194.69 962.33l0.35 -6.58 77.74 3.92c0,0 3.59,1.64 3.13,4.18l-81.21 -1.52z"/>
        <path class="fil2"
          d="M235.17 939.32c0,0.39 -2.03,0.53 -4.06,1.77 -2.03,1.24 -3.05,2.9 -3.41,2.72 -0.37,-0.18 0.28,-2.44 2.7,-3.9 2.42,-1.46 4.87,-0.95 4.77,-0.59z"/>
        <path class="fil2"
          d="M243.64 943c0,0.39 -1.67,1.04 -3.02,2.68 -1.36,1.65 -1.81,3.43 -2.21,3.41 -0.41,-0.02 -0.59,-2.27 1.16,-4.3 1.75,-2.03 4.08,-2.19 4.08,-1.79z"/>
        <path class="fil2"
          d="M248.26 953.29c-0.35,0 -0.87,-1.91 0.18,-4.06 1.06,-2.15 2.94,-2.98 3.11,-2.66 0.16,0.32 -1.02,1.48 -1.85,3.27 -0.83,1.79 -1.04,3.41 -1.44,3.45z"/>
        <path class="fil2"
          d="M234.64 929.74c-0.18,0.35 -2.03,-0.22 -4.22,-0.12 -2.19,0.1 -4.06,0.79 -4.2,0.45 -0.14,-0.35 1.5,-1.73 4.06,-1.83 2.56,-0.1 4.57,1.2 4.36,1.5z"/>
        <path class="fil5"
          d="M137.72 893.87l-4.39 50.47 8.12 40.91c0.06,0.31 0.09,0.62 0.09,0.94 0,2.61 -1.94,4.82 -4.53,5.15l-0 0c-0.21,0.03 -0.43,0.04 -0.65,0.04 -1.44,0 -2.82,-0.6 -3.79,-1.67 -7.25,-7.9 -33.74,-37.07 -33.21,-40.75 0.61,-4.26 1.12,-53.54 1.12,-53.54l37.25 -1.56z"/>
        <path class="fil6"
          d="M136.99 991.32l-37.44 -45.78 -0.14 2.15c-0.01,0.16 -0.02,0.33 -0.02,0.5 0,1.68 0.54,3.31 1.54,4.66 2.98,4.06 11.41,14.8 31.45,36.83 0.98,1.08 2.38,1.7 3.84,1.7 0.26,0 0.52,-0.02 0.77,-0.06l-0 0z"/>
        <g>
          <path class="fil10"
            d="M110.98 929.9c0.69,0.6 1.08,1.46 1.08,2.37 0,0.6 -0.17,1.18 -0.49,1.69 -0.57,0.72 -1.45,1.15 -2.37,1.15 -0.6,0 -1.19,-0.18 -1.69,-0.52 -0.76,-0.62 -1.19,-1.55 -1.19,-2.53 0,-0.67 0.2,-1.32 0.58,-1.87 0.59,-0.62 1.41,-0.97 2.27,-0.97 0.76,0 1.5,0.28 2.08,0.78m-0.26 -0.1l0 0 0 0z"/>
        </g>
        <path class="fil2"
          d="M126.86 968.48c1.35,-1.47 2.97,-2.68 4.77,-3.55 1.59,-0.51 3.26,-0.78 4.93,-0.78 0.32,0 0.64,0.01 0.96,0.03 0,-0.12 -0.57,-0.55 -1.73,-0.79 -0.47,-0.08 -0.95,-0.12 -1.42,-0.12 -1.09,0 -2.16,0.22 -3.16,0.63 -1.46,0.56 -2.72,1.53 -3.63,2.8 -0.71,1 -0.83,1.75 -0.71,1.79z"/>
        <path class="fil2"
          d="M130.02 975.48c1.5,-0.71 3.05,-1.35 4.61,-1.89 1.65,-0.2 3.32,-0.3 4.99,-0.3 -0.98,-0.71 -2.15,-1.09 -3.36,-1.09 -0.64,0 -1.28,0.11 -1.88,0.32 -3.03,0.67 -4.63,2.82 -4.37,2.96z"/>
        <path class="fil2"
          d="M120.71 959.38c2.19,-1.3 4.5,-2.44 6.87,-3.39 2.49,-0.61 5.04,-1.04 7.59,-1.28 -1.17,-0.31 -2.39,-0.46 -3.6,-0.46 -4.23,0 -8.24,1.88 -10.93,5.13l0.08 0z"/>
        <path class="fil2"
          d="M120.77 943.93c0.12,0.3 2.98,-0.69 6.62,-0.59 3.63,0.1 6.48,1.18 6.6,0.87 -1.73,-1.33 -3.86,-2.04 -6.04,-2.04 -0.17,0 -0.35,0 -0.52,0.01 -0.3,-0.03 -0.61,-0.04 -0.91,-0.04 -2.05,0 -4.06,0.62 -5.75,1.79z"/>
        <path class="fil2"
          d="M121.68 929.07c2.05,-0.52 4.16,-0.78 6.27,-0.78 0.2,0 0.42,0 0.62,0.01 2.28,0.38 4.5,1.06 6.6,2.03 0,-0.1 -0.43,-0.77 -1.54,-1.52 -1.49,-0.95 -3.18,-1.53 -4.93,-1.71 -0.36,-0.03 -0.72,-0.05 -1.08,-0.05 -1.41,0 -2.81,0.26 -4.12,0.76 -1.24,0.57 -1.87,1.16 -1.81,1.26z"/>
        <path class="fil2"
          d="M128.66 925.48c0.14,-0.44 0.22,-0.9 0.22,-1.36 0,-0.18 -0.01,-0.37 -0.03,-0.55 -0.05,-1.77 -0.46,-3.51 -1.2,-5.12 -0.43,-1.22 -1.25,-2.26 -2.33,-2.96 -0.3,-0.17 -0.64,-0.26 -0.99,-0.26 -0.52,0 -1.03,0.2 -1.4,0.56 -0.58,0.6 -0.91,1.4 -0.93,2.23 0.01,3.52 2.51,6.53 5.97,7.19 0.46,0.08 0.93,0.12 1.39,0.12 2.95,0 5.69,-1.53 7.24,-4.03 0.29,-0.46 0.45,-1 0.45,-1.54 0,-0.3 -0.05,-0.6 -0.14,-0.89 -0.32,-0.74 -1.05,-1.23 -1.86,-1.23 -0.06,0 -0.11,0 -0.17,0.01 -1.26,0.19 -2.45,0.72 -3.43,1.52 -1.44,1 -2.7,2.26 -3.72,3.7 -0.41,0.5 -0.71,1.08 -0.87,1.7 1.42,-1.82 3.12,-3.43 5.01,-4.75 0.9,-0.65 1.95,-1.08 3.05,-1.24 0.05,-0.01 0.09,-0.01 0.14,-0.01 0.43,0 0.82,0.26 0.98,0.66 0.04,0.15 0.05,0.31 0.05,0.46 0,0.4 -0.12,0.79 -0.34,1.12 -1.4,2.12 -3.78,3.4 -6.32,3.4 -0.4,0 -0.8,-0.03 -1.19,-0.09 -2.94,-0.55 -5.11,-3.09 -5.18,-6.09 0.01,-0.58 0.23,-1.14 0.61,-1.58 0.2,-0.2 0.48,-0.32 0.77,-0.32 0.18,0 0.37,0.05 0.53,0.14 0.91,0.6 1.62,1.46 2.03,2.48 0.94,2.13 1.51,4.42 1.68,6.74l0 -0z"/>
        <path class="fil5"
          d="M276.38 546.7c2.91,12.99 4.41,26.26 4.41,39.57 0,4.39 -0.18,8.85 -0.48,13.22 -0.85,11.25 -38.8,322.26 -38.8,322.26l-51.23 -0 14.39 -292.35 -4.18 0.91c0,0 -27.98,124.9 -30.29,145.08 -2.03,18.13 -25.62,149.95 -25.62,149.95l-46.84 0.53 14.94 -174.33 17.42 -167.29 6.54 -48.73 139.74 11.19z"/>
        <path class="fil5"
          d="M196.6 599.79c0.66,0.49 1.39,0.9 2.15,1.22 2,1.02 4.14,1.77 6.34,2.21 0.78,0.14 1.57,0.21 2.36,0.21 0.79,0 1.59,-0.07 2.37,-0.21 1.83,-0.31 3.55,-1.13 4.93,-2.38 1.43,-1.45 2.46,-3.26 2.98,-5.24 0.61,-2.03 0.95,-4.06 1.38,-6.09 1.62,-8.45 2.74,-16.14 3.37,-21.72 0.32,-2.8 0.55,-5.08 0.67,-6.64 0.04,-0.41 0.06,-0.82 0.06,-1.23 0,-0.41 -0.02,-0.82 -0.06,-1.23 -0.26,0.78 -0.42,1.6 -0.49,2.42 -0.26,1.77 -0.61,4.06 -0.99,6.58 -0.83,5.54 -2.03,13.2 -3.69,21.62 -0.83,4.06 -1.38,8.38 -4.06,10.86 -1.92,1.61 -4.35,2.5 -6.86,2.5 -0.67,0 -1.34,-0.06 -1.99,-0.19 -2.16,-0.37 -4.27,-1 -6.29,-1.85 -0.7,-0.35 -1.43,-0.64 -2.17,-0.85z"/>
        <path class="fil5"
          d="M212.03 560.16c0,0 -0.35,-0.26 -1.06,-0.32 -0.03,-0 -0.06,-0 -0.09,-0 -1,0 -1.98,0.33 -2.78,0.93 -1.29,0.92 -2.09,2.38 -2.17,3.96 0.07,2.01 1.38,3.76 3.29,4.39 0.59,0.25 1.22,0.38 1.87,0.38 1.33,0 2.6,-0.56 3.49,-1.54 0.73,-0.89 1.12,-2.01 1.12,-3.17 0,-0.41 -0.05,-0.82 -0.15,-1.22 -0.21,-1.01 -0.75,-1.92 -1.54,-2.58 -0.57,-0.45 -0.97,-0.51 -0.99,-0.47 0.93,0.84 1.56,1.96 1.79,3.19 0.04,0.24 0.06,0.49 0.06,0.74 0,1.04 -0.37,2.05 -1.04,2.85 -0.76,0.74 -1.77,1.15 -2.83,1.15 -2.12,0 -3.89,-1.64 -4.05,-3.75 0.03,-1.3 0.62,-2.52 1.62,-3.35 0.99,-0.77 2.2,-1.19 3.45,-1.2l-0 0z"/>
        <path class="fil5"
          d="M130.86 581.21c0.56,0.18 1.15,0.28 1.75,0.28 0.79,0.06 1.6,0.09 2.4,0.09 0.8,0 1.6,-0.03 2.4,-0.09 10.7,-0.63 20.87,-4.95 28.77,-12.18 1.18,-1.07 2.3,-2.24 3.31,-3.47 0.4,-0.44 0.75,-0.92 1.03,-1.44 -0.16,-0.14 -1.81,1.75 -4.85,4.32 -3.99,3.35 -8.46,6.09 -13.26,8.12 -4.8,1.99 -9.89,3.29 -15.06,3.82 -3.98,0.55 -6.48,0.38 -6.48,0.55z"/>
        <path class="fil5"
          d="M186.16 196.31c1.69,-3.25 5.04,-5.28 8.7,-5.28 0.48,0 0.97,0.04 1.45,0.11 2.35,-1.84 5.26,-2.84 8.24,-2.84 2.99,0 5.89,1 8.24,2.84 1.89,-1.17 4.06,-1.79 6.28,-1.79 6.28,0 11.48,4.88 11.87,11.15 0.58,-0.1 1.18,-0.16 1.77,-0.16 5.49,0 9.95,4.46 9.95,9.95 0,2.52 -0.96,4.96 -2.69,6.8 4.04,1.21 6.81,4.94 6.81,9.16 0,5.28 -4.28,9.56 -9.56,9.56 -0.3,0 -0.61,-0.02 -0.9,-0.04l-48.16 -28.3c-1.87,-1.85 -2.93,-4.37 -2.93,-7 0,-1.43 0.31,-2.85 0.92,-4.15l-0 0z"/>
        <path class="fil11"
          d="M237.67 237.01c-2.08,-20.75 -19.55,-36.55 -40.4,-36.55 -0.26,0 -0.54,0 -0.79,0.01l-2.03 0c-22.62,1.81 -33.74,22.01 -31.33,44.66l4.83 75.34 3.31 9.42 38.96 48.83 9.83 -43.99 0.18 -20.42c0,0 21.7,-3.82 21.52,-25.6 -0.14,-10.5 -2.09,-32.12 -4.08,-51.69z"/>
        <path class="fil8"
          d="M220.15 314.36c-0.24,-0 -0.49,0.01 -0.74,0.01 -9.77,0 -19.37,-2.72 -27.69,-7.84 -8.31,-5.12 6.98,15.57 28.42,13.24l0 -5.4z"/>
        <path class="fil5"
          d="M231.78 257.29c0,0.03 0,0.07 0,0.11 0,1.65 -1.28,3.01 -2.93,3.1 -0.1,0.01 -0.2,0.01 -0.29,0.01 -1.56,0 -2.86,-1.2 -2.98,-2.75 -0,-0.04 -0,-0.07 -0,-0.11 0,-1.65 1.28,-3.01 2.93,-3.1 0.1,-0.01 0.2,-0.01 0.29,-0.01 1.56,0 2.86,1.2 2.98,2.75l-0 0z"/>
        <path class="fil5"
          d="M233.48 248.87c-0.39,0.41 -2.78,-1.3 -6.09,-1.22 -3.31,0.08 -5.77,1.81 -6.09,1.4 -0.33,-0.41 0.18,-0.91 1.24,-1.71 1.42,-1.05 3.13,-1.62 4.89,-1.62 0.08,-0 0.16,-0 0.24,-0 1.66,0 3.29,0.51 4.65,1.47 0.97,0.77 1.34,1.48 1.16,1.69z"/>
        <path class="fil5"
          d="M203.15 259.32c0,0.03 0,0.06 0,0.09 0,1.65 -1.29,3.02 -2.94,3.1 -0.11,0.01 -0.22,0.02 -0.33,0.02 -1.54,0 -2.82,-1.2 -2.92,-2.74 0,-0.03 -0,-0.07 -0,-0.11 0,-1.65 1.28,-3.01 2.93,-3.1 0.1,-0.01 0.2,-0.01 0.29,-0.01 1.56,0 2.86,1.2 2.98,2.75l-0 0z"/>
        <path class="fil5"
          d="M201.47 249.05c-0.37,0.41 -2.76,-1.28 -6.09,-1.2 -3.33,0.08 -5.77,1.81 -6.09,1.4 -0.33,-0.41 0.2,-0.91 1.26,-1.73 1.43,-1.03 3.14,-1.6 4.89,-1.62 0.05,-0 0.1,-0 0.15,-0 1.69,0 3.34,0.51 4.73,1.46 0.97,0.77 1.34,1.5 1.16,1.69z"/>
        <path class="fil5"
          d="M213 273.62c1.75,-0.58 3.58,-0.95 5.42,-1.1 0.85,0 1.64,-0.28 1.79,-0.87 0,-0.07 0.01,-0.15 0.01,-0.23 0,-0.81 -0.22,-1.6 -0.64,-2.29l-2.68 -6.46c-3.69,-9.2 -6.39,-16.75 -6.09,-16.89 0.3,-0.14 3.67,7.19 7.37,16.36l2.56 6.5c0.4,0.73 0.61,1.54 0.61,2.37 0,0.33 -0.03,0.66 -0.1,0.98 -0.24,0.62 -0.75,1.09 -1.38,1.28 -0.47,0.13 -0.95,0.2 -1.44,0.22 -1.07,0.15 -2.14,0.23 -3.22,0.23 -0.74,0 -1.48,-0.04 -2.21,-0.11l0 0z"/>
        <path class="fil5"
          d="M201.33 239.51c-0.39,0.87 -3.29,0.14 -6.78,0.28 -3.49,0.14 -6.39,0.91 -6.78,0 -0.16,-0.43 0.41,-1.22 1.62,-2.03 1.56,-0.93 3.34,-1.43 5.16,-1.46 0.12,-0 0.24,-0.01 0.36,-0.01 1.67,0 3.32,0.42 4.8,1.2 1.22,0.81 1.79,1.58 1.62,2.01z"/>
        <path class="fil5"
          d="M232.53 239.71c-0.51,0.81 -2.88,0.26 -5.64,0.51 -2.76,0.24 -5.04,1.04 -5.64,0.3 -0.28,-0.37 0,-1.16 0.95,-2.03 1.27,-1.01 2.82,-1.61 4.45,-1.7 0.23,-0.02 0.45,-0.03 0.68,-0.03 1.39,0 2.77,0.38 3.97,1.09 1.06,0.71 1.46,1.46 1.24,1.87z"/>
        <path class="fil5"
          d="M235.37 227.08c0,0 -6.09,-13.52 -12.67,-16.57 -8.12,-3.67 -11.27,5.12 -18.9,3.15 -7.63,-1.97 -15.29,-5.5 -22.92,0.53 -8.34,6.6 -4.28,11 -4.61,20.69 -1.32,39.18 -8.24,50.41 -10.66,32 -0.26,-2.03 -5.91,-3.49 -6.9,-12.02 -1.32,-11.04 -2.03,-24.48 0.3,-32.48 2.03,-6.66 5.62,-11.31 12.28,-16.51 10.52,-8.12 25.2,-8.65 35.18,-7.86 9.99,0.79 29.44,11.98 28.89,29.07z"/>
        <path class="fil8"
          d="M166.99 266.27c-0.17,-3.14 -2.76,-5.59 -5.9,-5.59 -0.2,0 -0.4,0.01 -0.6,0.03 -4.06,0.47 -8.53,2.86 -8.12,11.25 0.79,14.86 15.55,11.02 15.55,10.6 0,-0.43 -0.55,-10.07 -0.94,-16.28z"/>
        <path class="fil9"
          d="M164.44 277.11c0,0 -0.24,0.2 -0.67,0.43 -0.36,0.19 -0.77,0.29 -1.18,0.29 -0.29,0 -0.58,-0.05 -0.85,-0.14 -2.02,-1.13 -3.27,-3.26 -3.27,-5.58 0,-0 0,-0 0,-0 -0.02,-0.25 -0.03,-0.5 -0.03,-0.74 0,-1.03 0.19,-2.05 0.56,-3.01 0.24,-0.94 0.94,-1.7 1.85,-2.03 0.13,-0.04 0.27,-0.06 0.4,-0.06 0.48,0 0.93,0.27 1.16,0.69 0.22,0.41 0.14,0.71 0.22,0.73 0.08,0.02 0.3,-0.26 0.14,-0.87 -0.1,-0.37 -0.32,-0.69 -0.63,-0.91 -0.31,-0.21 -0.68,-0.32 -1.06,-0.32 -0.13,0 -0.26,0.01 -0.38,0.04 -1.24,0.29 -2.22,1.22 -2.6,2.44 -0.46,1.09 -0.7,2.27 -0.7,3.46 0,0.25 0.01,0.5 0.03,0.75 0.24,2.98 1.93,5.71 4.06,6.21 0.21,0.05 0.43,0.08 0.65,0.08 0.62,0 1.22,-0.21 1.71,-0.58 0.59,-0.47 0.65,-0.79 0.59,-0.83z"/>
        <g>
          <path class="fil5"
            d="M166.69 237.44c1.86,1.41 4.05,2.34 6.35,2.7 0.2,0.02 0.4,0.04 0.61,0.04 2.16,0 4.06,-1.42 4.67,-3.49 0.16,-1.04 -0.12,-2.23 0.55,-3.05 0.67,-0.81 2.29,-0.71 3.55,-0.61 0.18,0.01 0.36,0.02 0.53,0.02 4.29,0 8.05,-2.88 9.17,-7.02 0.76,0.78 1.81,1.22 2.9,1.22 0.89,0 1.75,-0.29 2.46,-0.83 1.56,-1.26 2.93,-2.75 4.06,-4.41 1.13,-1.66 3.02,-2.66 5.03,-2.66 0.01,0 0.02,0 0.02,0 1.05,0.32 2.15,0.54 3.25,0.63 2.03,-0.2 2.86,-2.52 3.13,-4.47 0.26,-1.95 0.43,-4.2 2.03,-5.3 0.95,-0.4 1.97,-0.6 2.99,-0.6 0.79,0 1.57,0.12 2.33,0.36 1.81,0.22 4.06,-0.24 4.53,-2.03 0.02,-0.17 0.04,-0.34 0.04,-0.52 0,-0.79 -0.26,-1.56 -0.75,-2.18 -1.8,-2.57 -4.75,-4.09 -7.89,-4.09 -1.22,0 -2.43,0.23 -3.56,0.68 -1.73,-5.41 -6.77,-9.09 -12.45,-9.09 -4.88,0 -9.36,2.72 -11.61,7.06 -2.41,-2.1 -5.51,-3.26 -8.71,-3.26 -5.49,0 -10.42,3.39 -12.38,8.52 -0.74,-0.18 -1.5,-0.27 -2.27,-0.27 -5.3,0 -9.6,4.3 -9.6,9.6 0,1.72 0.46,3.4 1.33,4.88 -2.78,1.46 -4.62,4.24 -4.87,7.37 0,3.09 3.07,6.09 6.09,5.22 -0.37,0.74 -0.56,1.56 -0.56,2.38 0,2.94 2.38,5.32 5.32,5.32 1.87,0 3.6,-0.98 4.56,-2.59l-0.85 0.47zm0 0l0 0 0 0z"/>
        </g>
        <path class="fil8"
          d="M204.84 279.12c-0.21,-0.14 -0.46,-0.21 -0.71,-0.21 -0.1,0 -0.19,0.01 -0.29,0.03 -0.27,0.16 -0.47,0.41 -0.57,0.71 -0.37,0.9 -0.55,1.86 -0.55,2.83 0,1.56 0.48,3.08 1.39,4.35l0 0c0.94,1.17 2.37,1.84 3.87,1.84 1.96,0 3.74,-1.15 4.54,-2.94l1.16 -2.5 -8.83 -4.12z"/>
        <path class="fil5"
          d="M211.76 287.04c0.12,0 -0.99,1.52 -3.69,1.85 -0.16,0.02 -0.32,0.03 -0.47,0.03 -0.59,0 -1.17,-0.13 -1.7,-0.37 -0.8,-0.31 -1.5,-0.83 -2.03,-1.5 -0.97,-1.45 -1.5,-3.17 -1.5,-4.92 0,-0.17 0.01,-0.35 0.02,-0.52 -0.02,-0.25 -0.03,-0.5 -0.03,-0.75 0,-0.25 0.01,-0.5 0.03,-0.75 0.08,-0.59 0.41,-1.13 0.89,-1.48 0.26,-0.15 0.56,-0.23 0.86,-0.23 0.3,0 0.6,0.08 0.86,0.23l1.14 0.57 3.94 2.03c1.24,0.53 2.41,1.22 3.49,2.03 -1.32,-0.33 -2.6,-0.83 -3.8,-1.48l-4.06 -1.87c-0.73,-0.3 -1.69,-0.93 -2.03,-0.65 -0.35,0.28 -0.51,1.3 -0.51,2.19 -0.01,0.15 -0.01,0.31 -0.01,0.46 0,1.55 0.43,3.08 1.23,4.41 0.44,0.57 1.02,1.02 1.69,1.3 0.49,0.27 1.04,0.41 1.6,0.41 0.07,0 0.14,-0 0.21,-0.01 1.35,-0.03 2.68,-0.36 3.88,-0.97l-0 -0z"/>
        <path class="fil6"
          d="M157.05 231.85c-0.01,0.11 -0.01,0.22 -0.01,0.33 0,0.94 0.36,1.84 1.01,2.51 0.75,0.93 1.83,1.54 3.01,1.73 0.23,0.03 0.47,0.05 0.71,0.05 1.3,0 2.56,-0.49 3.51,-1.37l-0.63 0c0.82,1.36 1.85,2.59 3.05,3.63 0.8,0.71 1.73,1.27 2.74,1.64 0.6,0.21 1.23,0.32 1.87,0.32 0.38,0 0.76,-0.04 1.13,-0.11 1.72,-0.17 3.28,-1.1 4.24,-2.54 0.58,-0.96 0.97,-2.02 1.14,-3.13 0.08,-0.28 0.12,-0.57 0.12,-0.86 0,-0.11 -0.01,-0.22 -0.02,-0.34 -0.01,-0.11 -0.18,0.39 -0.43,1.12 -0.28,1.02 -0.72,1.98 -1.3,2.86 -1.16,1.4 -2.88,2.21 -4.69,2.21 -1.62,0 -3.18,-0.65 -4.32,-1.8 -1.12,-0.99 -2.11,-2.14 -2.9,-3.41l-0.26 -0.43 -0.37 0.35c-0.84,0.8 -1.95,1.24 -3.1,1.24 -0.15,0 -0.3,-0.01 -0.45,-0.02 -1.04,-0.11 -2.01,-0.6 -2.72,-1.36 -0.61,-0.78 -1.06,-1.67 -1.32,-2.62l-0 0z"/>
        <path class="fil6"
          d="M184.41 197.3c0,0 0.39,0 1.06,0.37 0.96,0.39 1.78,1.05 2.36,1.91l0.18 0.28 0.2 -0.28c1.81,-2.56 4.24,-4.61 7.07,-5.97 1.82,-0.87 3.81,-1.35 5.83,-1.4 0.08,-0 0.16,-0 0.24,-0 2.14,0 4.25,0.58 6.09,1.67 1.51,0.87 2.82,2.05 3.84,3.47 0.93,1.33 1.52,2.86 1.73,4.47l0 0.47 0.45 -0.14c0.73,-0.2 1.48,-0.3 2.24,-0.3 1.34,0 2.66,0.32 3.85,0.93 1.5,0.79 2.71,2.04 3.47,3.55 0.62,1.38 0.97,2.87 1.02,4.38 0.1,-0.32 0.15,-0.66 0.15,-0.99 0,-0.08 -0,-0.15 -0.01,-0.22 -0.01,-1.16 -0.25,-2.31 -0.73,-3.37 -0.74,-1.66 -2,-3.04 -3.57,-3.94 -1.33,-0.73 -2.82,-1.12 -4.34,-1.12 -0.81,0 -1.62,0.11 -2.4,0.33l0.51 0.32c-0.21,-1.73 -0.84,-3.39 -1.83,-4.83 -1.07,-1.53 -2.46,-2.81 -4.06,-3.76 -1.95,-1.15 -4.18,-1.75 -6.45,-1.75 -0.12,0 -0.24,0 -0.35,0 -2.12,0.08 -4.2,0.62 -6.09,1.56 -2.91,1.44 -5.37,3.64 -7.12,6.37l0.38 0c-0.66,-0.9 -1.59,-1.56 -2.66,-1.89 -0.57,-0.2 -1.04,-0.16 -1.04,-0.12z"/>
        <path class="fil4"
          d="M167.58 314.42l27.65 19.33 14.74 21.87 3.94 -22.33 6.37 -16.24 7.07 7.02 17.97 38.11 20.16 184.4c0,0 -35.14,10.29 -53.35,11.55 -18.21,1.26 -47.22,-3.76 -47.22,-3.76l0 -97 -10.33 -96.09 12.47 -36.81 0.55 -10.05z"/>
        <path class="fil5"
          d="M220.02 556.85c-0.01,-0.09 -0.01,-0.18 -0.01,-0.26 0,-0.09 0,-0.18 0.01,-0.26 0,-0.37 0,-0.87 0,-1.5 0,-1.38 -0.12,-3.35 -0.22,-5.85 -0.16,-5.12 -0.41,-12.45 -0.71,-21.5 -0.63,-18.13 -1.64,-43.2 -3.07,-70.85 -1.42,-27.65 -3.02,-52.79 -4.28,-70.81 -0.63,-9.03 -1.14,-16.34 -1.48,-21.46 -0.18,-2.5 -0.3,-4.45 -0.41,-5.83 0,-0.63 0,-1.14 0,-1.52l0 -0.51c0.01,0.08 0.02,0.17 0.02,0.25 0,0.08 -0.01,0.17 -0.02,0.25 0,0.39 0,0.87 0.16,1.52 0.12,1.36 0.3,3.33 0.53,5.81 0.45,5.06 1.06,12.38 1.75,21.44 1.38,18.11 3.07,43.14 4.49,70.81 1.42,27.67 2.35,52.79 2.84,70.9 0.24,9.08 0.41,16.4 0.49,21.48 0,2.52 -0,4.47 -0,5.85l0 1.52c-0,0.18 -0.03,0.36 -0.08,0.53l-0 0z"/>
        <path class="fil7"
          d="M162.39 327.44l-6.09 8.26 -37.92 17.05c-8.65,10.31 -13.93,21.07 -15.57,32.34l35.47 77.94 4.06 21.87 -26.94 114.58c0,0 36.1,12.18 39.04,8.59 1.24,-1.56 5.48,-17.4 8.12,-26.39 6.23,-20.63 9.66,-28.42 11.71,-47.14 2.05,-18.72 3.94,-43.04 2.56,-59.38 -2.58,-30.57 -6.64,-81.05 -7,-94.32 -0.37,-13.28 -2.76,-60.76 -2.76,-60.76l-4.67 7.37z"/>
        <path class="fil7"
          d="M227.35 324.03l14.33 6.96 36.42 4.06 3.29 50.76 4.37 102.57 24.22 101.94c0,0 -28.91,15.61 -35.91,13.03 -7,-2.58 -12.49,-29.38 -13.52,-38.92 -1.22,-11.39 -20.2,-100.13 -20.2,-100.13l-10.92 -122.64 -2.07 -17.62z"/>
        <path class="fil7"
          d="M277.42 334.93l71.06 41.92 0 0 45.48 -44.66 27.39 21.2 -54.82 62.84c-7,6.74 -21.83,6.39 -29.44,3.72l-58.69 -21.38 -5.62 -17.48 4.65 -46.15z"/>
        <path class="fil7"
          d="M87.09 378.31c0,0 4.65,49.17 6.09,62.75 2.38,21.48 5.32,30.21 8.65,45.19 3.72,16.73 26.84,16.24 34.68,8.12 12.18,-12.59 8.36,-40.2 8.36,-40.2l-22.49 -79.28 -35.29 3.41z"/>
        <path class="fil5"
          d="M209.37 354.85c-0.5,-0.37 -0.96,-0.79 -1.38,-1.26l-3.65 -3.63 -12.34 -12.61 0.55 0c-1.6,1.95 -2.7,4.28 -3.19,6.76 -0.22,1.04 -0.32,2.1 -0.32,3.17 0,0.26 0.01,0.53 0.02,0.79l0 0.85 -0.67 -0.53c-6.23,-5.06 -11.29,-10.03 -15.06,-13.42 -1.89,-1.71 -3.41,-3.07 -4.47,-4.06 -0.56,-0.45 -1.1,-0.95 -1.6,-1.48 0.63,0.36 1.23,0.78 1.78,1.26 1.12,0.87 2.68,2.17 4.61,3.84 3.88,3.29 9.01,8.12 15.21,13.2l-0.61 0.32c-0.02,-0.3 -0.03,-0.6 -0.03,-0.9 0,-1.09 0.12,-2.19 0.35,-3.26 0.49,-2.62 1.66,-5.07 3.37,-7.1l0.26 -0.3 0.26 0.28 12.18 12.79 3.49 3.78c0.45,0.47 0.87,0.99 1.24,1.52l0 -0z"/>
        <path class="fil5"
          d="M225.87 327.28c0.03,0.19 0.04,0.39 0.04,0.58 0,0.19 -0.01,0.39 -0.04,0.58 0,0.75 0,1.85 -0.16,3.23 -0.29,3.75 -0.91,7.5 -1.83,11.14l-0.22 0.89 -0.43 -0.83c-1.26,-2.42 -2.88,-4.65 -4.79,-6.6 -0.55,-0.55 -1.12,-1.08 -1.67,-1.54l0.61 -0.22c-1.09,5.02 -2.59,9.97 -4.45,14.74 -0.71,1.83 -1.34,3.27 -1.79,4.24 -0.2,0.52 -0.47,1.02 -0.79,1.48 0.13,-0.54 0.31,-1.07 0.53,-1.58 0.43,-1.16 0.93,-2.6 1.56,-4.3 1.68,-4.8 3.1,-9.76 4.2,-14.74l0.14 -0.61 0.47 0.41c0.57,0.49 1.16,1.04 1.73,1.6 1.97,2.01 3.61,4.3 4.87,6.81l-0.67 0c0.93,-3.61 1.61,-7.31 2.03,-11 0.45,-2.66 0.55,-4.26 0.65,-4.26z"/>
        <path class="fil5"
          d="M351.01 397.6c0.06,-1.33 0.1,-2.7 0.1,-4.04 0,-2.3 -0.09,-4.62 -0.27,-6.9 -0.66,-3.58 -1.53,-7.15 -2.6,-10.64 2.52,4.23 3.86,9.06 3.86,13.99 0,2.57 -0.36,5.13 -1.08,7.59l-0 0z"/>
        <path class="fil6"
          d="M108.96 274.37l30.38 -7.4c3.65,-0.89 7.33,1.35 8.22,5l18.55 76.12c0.89,3.65 -1.35,7.33 -5,8.22l-30.38 7.4c-3.65,0.89 -7.33,-1.35 -8.22,-5l-18.56 -76.12c-0.89,-3.65 1.35,-7.33 5,-8.22z"/>
        <g>
          <path class="fil2"
            d="M130.04 360.57c-0.37,0.09 -0.75,0.14 -1.12,0.14 -2.2,0 -4.11,-1.51 -4.62,-3.65l-18.13 -74.29c-0.09,-0.37 -0.13,-0.75 -0.13,-1.12 0,-2.2 1.51,-4.11 3.65,-4.62l5.16 -1.26 2.03 -0.51 17.18 -4.18 5.89 -1.44c0.41,-0.11 0.83,-0.17 1.25,-0.17 2.22,0 4.15,1.52 4.66,3.68l18.11 74.29c0.09,0.37 0.14,0.75 0.14,1.13 0,2.19 -1.5,4.11 -3.63,4.63l-30.41 7.37zm0 0l0 0 0 0z"/>
        </g>
        <path class="fil6"
          d="M104.93 286.6l0.1 -0.02c0.43,-0.1 0.85,0.15 0.96,0.58l2.04 8.34c0.11,0.43 -0.15,0.85 -0.58,0.96l-0.1 0.02c-0.42,0.1 -0.85,-0.16 -0.96,-0.58l-2.04 -8.34c-0.1,-0.43 0.16,-0.85 0.58,-0.96z"/>
        <path class="fil6"
          d="M107.76 298.33l0.1 -0.02c0.43,-0.1 0.85,0.16 0.96,0.58l2.02 8.35c0.1,0.43 -0.16,0.85 -0.58,0.96l-0.1 0.02c-0.42,0.1 -0.85,-0.16 -0.96,-0.58l-2.02 -8.35c-0.1,-0.42 0.16,-0.85 0.58,-0.96z"/>
        <path class="fil6"
          d="M150.46 284.08l0.1 -0.02c0.43,-0.1 0.85,0.16 0.96,0.58l3.8 15.54c0.11,0.43 -0.15,0.85 -0.58,0.96l-0.1 0.02c-0.42,0.1 -0.85,-0.16 -0.96,-0.58l-3.8 -15.54c-0.1,-0.43 0.16,-0.85 0.58,-0.96z"/>
        <path class="fil11"
          d="M129.94 342.87l-6.27 -8.91 -9.16 -6.09c-1.6,-1.14 -3.36,-2.07 -5.22,-2.74 -1.69,-0.37 -16.24,6.96 -16.24,6.96 -2.49,0.44 -4.52,2.27 -5.2,4.71 -1.63,1.45 -2.56,3.53 -2.56,5.71 0,1.59 0.5,3.15 1.43,4.44l1.54 7.33 5.52 19.1 0.51 4.06 21.78 -2.03 -1.64 -6.56c4.39,-4.63 4.57,-14.74 4.57,-14.74 1.24,-1.1 1.95,-2.67 1.95,-4.33 0,-0.69 -0.12,-1.38 -0.37,-2.02 1.6,-1.42 0.65,-4.85 0.65,-4.85 1.44,1.37 3.36,2.13 5.35,2.13 0.95,0 1.89,-0.17 2.77,-0.51 0.47,-0.12 0.8,-0.54 0.8,-1.03 0,-0.23 -0.08,-0.46 -0.22,-0.64l-0 0z"/>
        <path class="fil9"
          d="M95.08 347.25l0.73 -0.18 2.03 -0.41c1.83,-0.39 4.43,-1.06 7.61,-2.03l1.24 -0.32c0.43,-0.15 0.88,-0.25 1.34,-0.29 0.09,-0 0.17,-0.01 0.26,-0.01 0.92,0 1.81,0.31 2.53,0.88l4.69 4.06c0.41,0.37 0.83,0.73 1.24,1.14l0.3 0.32c0.06,0.07 0.12,0.14 0.16,0.22l0 0.2c0.29,0.71 0.45,1.47 0.45,2.23 0,0.77 -0.15,1.53 -0.45,2.23 -0.37,1.16 -0.83,2.31 -1.36,3.41 -0.25,0.61 -0.6,1.17 -1.03,1.66 -0.38,0.39 -0.9,0.61 -1.45,0.61 -0.2,0 -0.39,-0.03 -0.58,-0.08 -0.56,-0.16 -1.03,-0.53 -1.32,-1.04 -0.26,-0.48 -0.41,-1.02 -0.43,-1.56 0.04,-1.01 0.28,-2.02 0.69,-2.94l0.14 0.35c-1.73,-0.88 -3.3,-2.07 -4.63,-3.49l0.38 0c-1.13,1.05 -2.61,1.63 -4.15,1.63 -0.45,0 -0.91,-0.05 -1.35,-0.15l0.2 -0.43c0.63,0.47 1,1.21 1,2 0,1.15 -0.79,2.16 -1.91,2.43l0 -0.43c2,0.34 3.85,1.29 5.28,2.72 1.78,1.78 2.79,4.18 2.82,6.7 0.01,0.13 0.01,0.25 0.01,0.38 0,0.13 -0,0.25 -0.01,0.38 0,0.16 0,0.24 0,0.24 0,-0.06 0,-0.13 0,-0.19 0,-1.21 -0.2,-2.42 -0.59,-3.57 -0.49,-1.4 -1.3,-2.67 -2.38,-3.7 -1.41,-1.27 -3.17,-2.09 -5.06,-2.35l-1.06 -0.16 1.06 -0.26c0.92,-0.22 1.56,-1.03 1.56,-1.98 0,-0.65 -0.31,-1.26 -0.83,-1.64l-0.89 -0.67 1.1 0.24c0.38,0.08 0.76,0.12 1.15,0.12 1.43,0 2.82,-0.54 3.87,-1.52l0.18 -0.18 0.18 0.18c1.29,1.38 2.81,2.52 4.49,3.37l0.22 0.12 0 0.22c-0.39,0.85 -0.62,1.78 -0.67,2.72 -0,0.04 -0,0.08 -0,0.12 0,0.86 0.54,1.62 1.34,1.91 0.13,0.04 0.26,0.05 0.4,0.05 0.41,0 0.8,-0.17 1.08,-0.46 0.39,-0.44 0.7,-0.94 0.91,-1.48 0.52,-1.08 0.98,-2.2 1.34,-3.35 0.25,-0.69 0.38,-1.41 0.38,-2.14 0,-0.4 -0.04,-0.8 -0.11,-1.19 -0.05,-0.27 -0.13,-0.53 -0.24,-0.77l0 -0.18 0 -0.1 -0.28 -0.3c-0.39,-0.39 -0.81,-0.75 -1.22,-1.12l-4.63 -4.06c-0.65,-0.53 -1.46,-0.82 -2.3,-0.82 -0.06,0 -0.12,0 -0.17,0 -0.43,0.04 -0.85,0.13 -1.26,0.24l-1.24 0.32c-3.21,0.85 -5.85,1.44 -7.67,1.77 -0.91,0.16 -1.62,0.26 -2.03,0.32 -0.2,0.03 -0.4,0.05 -0.59,0.05 -0.15,0 -0.31,-0.01 -0.46,-0.03l-0 0z"/>
        <path class="fil9"
          d="M120.6 348.47c-0.79,-1.13 -1.47,-2.35 -2.03,-3.61 -0.68,-1.34 -1.49,-2.61 -2.42,-3.79 -1.1,-1.44 -2.63,-2.5 -4.36,-3.01 -0.65,-0.11 -1.31,-0.17 -1.97,-0.17 -1.16,0 -2.31,0.17 -3.41,0.51l-4.45 0.99 -2.98 0.63c-0.37,0.09 -0.75,0.15 -1.14,0.16 0.34,-0.17 0.7,-0.31 1.08,-0.39l2.96 -0.79 4.41 -1.12c1.17,-0.37 2.39,-0.56 3.62,-0.56 0.68,0 1.36,0.06 2.02,0.17 1.85,0.55 3.48,1.68 4.63,3.23 0.92,1.22 1.72,2.55 2.35,3.94l1.32 2.76c0.16,0.33 0.28,0.68 0.37,1.03l-0 0z"/>
        <path class="fil9"
          d="M121.48 343.94c-0.1,0 -0.63,-1.81 -2.03,-4.49 -0.86,-1.56 -1.87,-3.05 -3.01,-4.43 -0.66,-0.81 -1.38,-1.58 -2.15,-2.3 -0.78,-0.79 -1.85,-1.23 -2.96,-1.24 -1.12,0.05 -2.24,0.21 -3.33,0.45l-3.13 0.63c-2.03,0.45 -3.76,0.89 -5.22,1.3 -1.46,0.41 -2.68,0.77 -3.51,1.02 -0.42,0.16 -0.86,0.27 -1.3,0.32 0.4,-0.21 0.81,-0.39 1.24,-0.53 0.81,-0.3 2.03,-0.73 3.45,-1.18 1.42,-0.45 3.25,-0.95 5.24,-1.42 0.99,-0.24 2.03,-0.47 3.13,-0.67 1.13,-0.25 2.28,-0.42 3.43,-0.49 0,0 0,0 0,0 0.62,0 1.23,0.13 1.8,0.37 0.53,0.25 1.02,0.58 1.46,0.97 0.79,0.73 1.52,1.53 2.19,2.38 1.92,2.36 3.41,5.06 4.39,7.94 0.17,0.44 0.27,0.89 0.3,1.36l-0 0z"/>
        <path class="fil5"
          d="M124.79 499.74c2.24,-0.29 4.43,-0.91 6.5,-1.81 2.34,-1.2 4.42,-2.87 6.09,-4.89 2.22,-2.71 3.92,-5.81 5.02,-9.14 1.16,-3.08 1.76,-6.36 1.76,-9.65 0,-0.93 -0.05,-1.85 -0.14,-2.77 -0.65,-4.55 -1.4,-9.42 -2.29,-14.54 -1.79,-10.15 -4.06,-21.38 -6.72,-33.05 -4.18,-18.41 -8.57,-35.35 -12.18,-48.97l0.45 0.32 -26.25 2.35 -7.29 0.59 -1.91 0.12 -0.65 0c0.2,-0.07 0.42,-0.11 0.63,-0.12l1.91 -0.24 7.25 -0.83 26.23 -2.72 0.37 0 0 0.35c3.82,13.6 8.28,30.45 12.47,48.97 2.64,11.67 4.89,22.88 6.64,33.11 0.87,5.12 1.58,10.01 2.21,14.6 0.08,0.87 0.12,1.75 0.12,2.62 0,3.47 -0.65,6.91 -1.91,10.15 -1.16,3.39 -2.96,6.54 -5.28,9.28 -1.76,2.05 -3.93,3.72 -6.37,4.89 -1.55,0.68 -3.21,1.14 -4.89,1.34 -0.38,0.04 -0.76,0.06 -1.14,0.06 -0.2,0 -0.41,-0.01 -0.61,-0.02l-0 -0z"/>
        <polygon class="fil7"
          points="132.97,302.3 126.21,307.44 128.32,316.13 136.74,317.81 143.53,312.8 141.27,303.54 "/>
        <polygon class="fil2"
          points="134.61,309.08 134.51,309.06 126.17,307.68 126.25,307.18 134.47,308.56 141.11,303.36 141.43,303.74 "/>
        <rect class="fil2"
          transform="matrix(0.971466 -0.237177 0.237177 0.971466 134.316 308.87)"
          width="0.51"
          height="9.26"/>
        <path class="fil7"
          d="M132.42 324.49l11.3 -2.76c1.06,-0.26 2.12,0.39 2.38,1.45l0.14 0.57c0.26,1.06 -0.39,2.12 -1.45,2.38l-11.3 2.76c-1.06,0.26 -2.12,-0.39 -2.38,-1.45l-0.14 -0.57c-0.26,-1.06 0.39,-2.12 1.45,-2.38z"/>
        <rect class="fil2"
          transform="matrix(0.998026 -0.0627905 0.0627905 0.998026 243.135 387.738)"
          width="28.95"
          height="12.14"/>
        <path class="fil5"
          d="M272.79 398.05c0,0 -0.18,-1.26 -0.39,-3.35 -0.2,-2.09 -0.45,-5.2 -0.75,-8.75l0.41 0.37c-7.41,0.55 -17.62,1.26 -28.89,2.03 -0.45,0.49 0.61,-0.69 0.49,-0.57l0 0 0 0.75 0 0.79 0.1 1.56c0,1.06 0.12,2.03 0.18,3.09 0.12,2.03 0.24,4.06 0.37,5.89l-0.55 -0.47c8.28,-0.49 15.45,-0.83 20.59,-1.06l6.09 -0.24c0.38,-0.03 0.76,-0.04 1.14,-0.04 0.38,0 0.76,0.01 1.14,0.04 -0.67,0.14 -1.35,0.22 -2.03,0.24l-5.93 0.53c-5.12,0.41 -12.4,0.97 -20.91,1.54l-0.49 0 0 -0.51c-0.12,-1.89 -0.24,-3.86 -0.39,-5.89 0,-0.99 -0.14,-2.03 -0.2,-3.07l0 -1.58 0 -0.79 0 -0.73 0 0c0,0.12 0.93,-1.06 0.51,-0.55 11.27,-0.71 21.48,-1.3 28.91,-1.67l0.37 0 0 0.37c0.2,3.84 0.3,6.9 0.37,8.99 0.01,0.21 0.01,0.42 0.01,0.63 0,0.81 -0.04,1.63 -0.13,2.43l-0 -0z"/>
        <path class="fil5"
          d="M279.37 362.28c0.1,0.39 0.15,0.79 0.16,1.2 0,0.89 0.16,2.03 0.28,3.41 0.2,3.11 0.47,7.35 0.81,12.55 0.59,10.74 1.38,25.34 2.27,41.46 0.89,16.12 1.46,30.74 2.03,41.48 0.2,5.22 0.37,9.46 0.49,12.59 0,1.35 0,2.49 0,3.41 0.03,0.2 0.05,0.4 0.05,0.6 0,0.2 -0.02,0.4 -0.04,0.6 -0.1,-0.38 -0.15,-0.78 -0.16,-1.18 0,-0.89 -0.16,-2.03 -0.28,-3.41 -0.18,-3.11 -0.47,-7.37 -0.81,-12.57 -0.59,-10.74 -1.38,-25.34 -2.27,-41.46 -0.89,-16.12 -1.46,-30.72 -2.03,-41.48 -0.2,-5.2 -0.37,-9.46 -0.49,-12.57 0,-1.4 0,-2.52 0,-3.43 -0.03,-0.2 -0.04,-0.4 -0.04,-0.6 0,-0.2 0.01,-0.4 0.04,-0.6l-0 0z"/>
        <path class="fil5"
          d="M135.43 385.62c0.27,1.07 0.45,2.17 0.55,3.27 0.3,2.29 0.67,5.3 1.14,8.95 0.91,7.57 2.03,18.03 3.33,29.6 1.3,11.57 2.31,22.05 3.02,29.62 0.32,3.65 0.59,6.7 0.79,8.99 0.11,0.81 0.16,1.63 0.16,2.44 0,0.29 -0.01,0.58 -0.02,0.87 -0.28,-1.07 -0.48,-2.17 -0.59,-3.27 -0.28,-2.29 -0.67,-5.32 -1.14,-8.95 -0.89,-7.57 -2.03,-18.03 -3.33,-29.6 -1.3,-11.57 -2.29,-22.03 -3.02,-29.62 -0.32,-3.65 -0.59,-6.68 -0.79,-8.99 -0.09,-0.73 -0.13,-1.48 -0.13,-2.22 0,-0.36 0.01,-0.73 0.03,-1.09l0 -0z"/>
      </g>
    </g>
  </g>
</svg>
